<svg xml:space="preserve" viewBox="0 0 100 100" y="0" x="0" xmlns="http://www.w3.org/2000/svg" id="圖層_1" version="1.1" style="height: 100%; width: 100%; background: rgb(255, 255, 255, 0);" width="20px" height="20px"><g class="ldl-scale" style="transform-origin: 50% 50%; transform: rotate(0deg) scale(1, 1);"><g class="ldl-ani"><g class="ldl-layer"><g class="ldl-ani" style="transform-origin: 50px 50px; animation: 1.11111s linear -0.833333s infinite normal forwards running static-fdeef450-e1af-4b38-82c5-87146883ab50;"><circle fill="#ffdc6c" r="34.5" cy="50" cx="50.5" style="fill: rgb(255, 220, 108);"></circle></g></g><g class="ldl-layer"><g class="ldl-ani" style="transform-origin: 50px 50px; animation: 1.11111s linear -1.11111s infinite normal forwards running static-fdeef450-e1af-4b38-82c5-87146883ab50;"><path stroke-miterlimit="10" stroke-width="3" stroke="#fff" fill="#e0e0e0" d="M38.3 74.8h-1.4c-2 0-3.7-1.5-3.7-3.5 0 0 0 0 0 0s0 0 0 0c0-2 1.7-3.5 3.7-3.5h34.8c3.2 0 6-2.5 6.1-5.7.1-3.3-2.6-6.1-5.9-6.1h-53-.1c-1.4 0-2.8.5-3.8 1.4-1.3 1-2.2 2.6-2.2 4.4-.1 3.3 2.6 6.1 5.9 6.1H21.8c1.1 0 2.1.5 2.8 1.3.1.1.2.3.3.4.3.5.5 1.1.5 1.8 0 0 0 0 0 0s0 0 0 0c0 1.4-.5 2.6-1.5 3.2-.4.2-.8.3-1.3.3h-1.2c-3.2 0-6 2.5-6.1 5.7-.1 3.3 2.6 6.1 5.9 6.1h17c1.4 0 2.7-.5 3.8-1.3 1.1-.9 2-2.1 2.2-3.6.1-.3.1-.6.1-.8 0-3.5-2.7-6.2-6-6.2z" style="stroke: rgb(255, 255, 255); fill: rgb(224, 224, 224);"></path></g></g><metadata xmlns:d="https://loading.io/stock/"><d:name>sunny</d:name><d:tags>solar,sky,weather,cloud,mist,day,light,sunny,weather</d:tags><d:license>pro</d:license><d:slug>k83e42</d:slug></metadata></g></g></svg>