<svg xmlns="http://www.w3.org/2000/svg" xmlns:xlink="http://www.w3.org/1999/xlink" style="margin:auto;background:transparent;display:block;z-index:1;position:relative" width="288" height="2000" preserveAspectRatio="xMidYMid" viewBox="0 0 288 2000">
<g transform="translate(144,1000) scale(1,1) translate(-144,-1000)"><defs>
  <path id="path-rd7nqx3aje-1" d="M-35 -35L35 -35L35 35L-35 35Z" fill="none" stroke="inherit" stroke-width="8.4" transform="scale(0.5)"></path>
  <path id="path-rd7nqx3aje-2" d="M0 -37A37 37 0 0 1 0 37A37 37 0 0 1 0 -37" fill="none" stroke="inherit" stroke-width="8.4" transform="scale(0.5)"></path>
  <path id="path-rd7nqx3aje-3" d="M0 -34.641L40 34.641L-40 34.641Z" fill="none" stroke="inherit" stroke-width="8.4" transform="scale(0.5)"></path>
</defs><path id="path0" d="M 86.74675695430022 280.4361863555502
c 0 65.5246594604204 -16.032629442443284 18.82091282373777 -34.85354226618106 18.82091282373777
S 17.0396724219381 345.96084581597063 17.0396724219381 280.4361863555502
s 16.032629442443284 -18.82091282373777 34.85354226618106 -18.82091282373777
S 86.74675695430022 214.9115268951298 86.74675695430022 280.4361863555502
z" fill="none" stroke="none"></path>
<use xlink:href="#path-rd7nqx3aje-2" x="0" y="0" stroke="#fdbc40">
  <animateMotion begin="-4.410459416375552s" dur="10s" keyPoints="0;1" keyTimes="0;1" repeatCount="indefinite" calcMode="linear">
    <mpath xlink:href="#path0"></mpath>
  </animateMotion>
</use><path id="path1" d="M 57.14865385181696 34.089909027316935
c 0 27.858600475623224 -6.816466073822704 8.001938434487522 -14.818404508310225 8.001938434487522
S 27.511844835196513 61.948509502940155 27.511844835196513 34.089909027316935
s 6.816466073822704 -8.001938434487522 14.818404508310225 -8.001938434487522
S 57.14865385181696 6.2313085516937115 57.14865385181696 34.089909027316935
z" fill="none" stroke="none"></path>
<use xlink:href="#path-rd7nqx3aje-3" x="0" y="0" stroke="#35cd4b">
  <animateMotion begin="-5.21235155454799s" dur="10s" keyPoints="1;0" keyTimes="0;1" repeatCount="indefinite" calcMode="linear">
    <mpath xlink:href="#path1"></mpath>
  </animateMotion>
</use><path id="path2" d="M 96.76384774285071 386.9468161979227
c 0 43.29259878449558 -10.5928699153553 12.43510816150405 -23.02797807685935 12.43510816150405
S 50.707891589132025 430.2394149824183 50.707891589132025 386.9468161979227
s 10.5928699153553 -12.43510816150405 23.02797807685935 -12.43510816150405
S 96.76384774285071 343.65421741342715 96.76384774285071 386.9468161979227
z" fill="none" stroke="none"></path>
<use xlink:href="#path-rd7nqx3aje-3" x="0" y="0" stroke="#fc625d">
  <animateMotion begin="-5.332783793844513s" dur="10s" keyPoints="1;0" keyTimes="0;1" repeatCount="indefinite" calcMode="linear">
    <mpath xlink:href="#path2"></mpath>
  </animateMotion>
</use><path id="path3" d="M 119.23958984099471 1393.3121420528134
c 0 65.06946611331786 -15.921252346875646 18.690165798506197 -34.61141814538184 18.690165798506197
S 50.01675355023104 1458.3816081661314 50.01675355023104 1393.3121420528134
s 15.921252346875646 -18.690165798506197 34.61141814538184 -18.690165798506197
S 119.23958984099471 1328.2426759394955 119.23958984099471 1393.3121420528134
z" fill="none" stroke="none"></path>
<use xlink:href="#path-rd7nqx3aje-3" x="0" y="0" stroke="#35cd4b">
  <animateMotion begin="-7.002923732287265s" dur="10s" keyPoints="0;1" keyTimes="0;1" repeatCount="indefinite" calcMode="linear">
    <mpath xlink:href="#path3"></mpath>
  </animateMotion>
</use><path id="path4" d="M 100.85821886623611 1504.999546188841
c 0 22.120124148528642 -5.41237080229956 6.353652680960355 -11.766023483259914 6.353652680960355
S 77.32617189971629 1527.1196703373696 77.32617189971629 1504.999546188841
s 5.41237080229956 -6.353652680960355 11.766023483259914 -6.353652680960355
S 100.85821886623611 1482.8794220403122 100.85821886623611 1504.999546188841
z" fill="none" stroke="none"></path>
<use xlink:href="#path-rd7nqx3aje-3" x="0" y="0" stroke="#fc625d">
  <animateMotion begin="-4.7342869296527335s" dur="10s" keyPoints="0;1" keyTimes="0;1" repeatCount="indefinite" calcMode="linear">
    <mpath xlink:href="#path4"></mpath>
  </animateMotion>
</use><path id="path5" d="M 119.12243518463126 1042.6857985909717
c 0 34.776863524392475 -8.50923256447901 9.989099097431883 -18.498331661910893 9.989099097431883
S 82.12577186080946 1077.462662115364 82.12577186080946 1042.6857985909717
s 8.50923256447901 -9.989099097431883 18.498331661910893 -9.989099097431883
S 119.12243518463126 1007.9089350665791 119.12243518463126 1042.6857985909717
z" fill="none" stroke="none"></path>
<use xlink:href="#path-rd7nqx3aje-2" x="0" y="0" stroke="#fc625d">
  <animateMotion begin="-5.313855177750093s" dur="10s" keyPoints="1;0" keyTimes="0;1" repeatCount="indefinite" calcMode="linear">
    <mpath xlink:href="#path5"></mpath>
  </animateMotion>
</use><path id="path6" d="M 122.11938741276512 809.6587313204071
c 0 19.920953144328497 -4.874275769356972 5.721975903158186 -10.596251672515159 5.721975903158186
S 100.92688406773479 829.5796844647356 100.92688406773479 809.6587313204071
s 4.874275769356972 -5.721975903158186 10.596251672515159 -5.721975903158186
S 122.11938741276512 789.7377781760787 122.11938741276512 809.6587313204071
z" fill="none" stroke="none"></path>
<use xlink:href="#path-rd7nqx3aje-1" x="0" y="0" stroke="#fdbc40">
  <animateMotion begin="-7.4237396529928805s" dur="10s" keyPoints="1;0" keyTimes="0;1" repeatCount="indefinite" calcMode="linear">
    <mpath xlink:href="#path6"></mpath>
  </animateMotion>
</use><path id="path7" d="M 151.48938489677744 1406.991142013971
c 0 51.93447754860603 -12.707372166148284 14.917349934174075 -27.62472210032236 14.917349934174075
S 96.2399406961327 1458.9256195625771 96.2399406961327 1406.991142013971
s 12.707372166148284 -14.917349934174075 27.62472210032236 -14.917349934174075
S 151.48938489677744 1355.056664465365 151.48938489677744 1406.991142013971
z" fill="none" stroke="none"></path>
<use xlink:href="#path-rd7nqx3aje-2" x="0" y="0" stroke="#fc625d">
  <animateMotion begin="-9.834346212785148s" dur="10s" keyPoints="0;1" keyTimes="0;1" repeatCount="indefinite" calcMode="linear">
    <mpath xlink:href="#path7"></mpath>
  </animateMotion>
</use><path id="path8" d="M 170.09543850274673 408.47106128562893
c 0 54.51608426703027 -13.339041895124426 15.658875268189547 -28.99791716331397 15.658875268189547
S 112.0996041761188 462.98714555265923 112.0996041761188 408.47106128562893
s 13.339041895124426 -15.658875268189547 28.99791716331397 -15.658875268189547
S 170.09543850274673 353.95497701859864 170.09543850274673 408.47106128562893
z" fill="none" stroke="none"></path>
<use xlink:href="#path-rd7nqx3aje-2" x="0" y="0" stroke="#fdbc40">
  <animateMotion begin="-5.079795376228282s" dur="10s" keyPoints="1;0" keyTimes="0;1" repeatCount="indefinite" calcMode="linear">
    <mpath xlink:href="#path8"></mpath>
  </animateMotion>
</use><path id="path9" d="M 167.9159825463684 188.52417496036404
c 0 34.690536605020554 -8.488110020377368 9.96430306739952 -18.45241308777689 9.96430306739952
S 131.0111563708146 223.2147115653846 131.0111563708146 188.52417496036404
s 8.488110020377368 -9.96430306739952 18.45241308777689 -9.96430306739952
S 167.9159825463684 153.83363835534348 167.9159825463684 188.52417496036404
z" fill="none" stroke="none"></path>
<use xlink:href="#path-rd7nqx3aje-1" x="0" y="0" stroke="#fdbc40">
  <animateMotion begin="-1.2192798377761505s" dur="10s" keyPoints="0;1" keyTimes="0;1" repeatCount="indefinite" calcMode="linear">
    <mpath xlink:href="#path9"></mpath>
  </animateMotion>
</use><path id="path10" d="M 177.90888604302404 1936.679250083409
c 0 37.075214134488576 -9.071594947800396 10.649263634374378 -19.720858582174774 10.649263634374378
S 138.4671688786745 1973.7544642178975 138.4671688786745 1936.679250083409
s 9.071594947800396 -10.649263634374378 19.720858582174774 -10.649263634374378
S 177.90888604302404 1899.6040359489205 177.90888604302404 1936.679250083409
z" fill="none" stroke="none"></path>
<use xlink:href="#path-rd7nqx3aje-3" x="0" y="0" stroke="#fdbc40">
  <animateMotion begin="-8.55982388306165s" dur="10s" keyPoints="1;0" keyTimes="0;1" repeatCount="indefinite" calcMode="linear">
    <mpath xlink:href="#path10"></mpath>
  </animateMotion>
</use><path id="path11" d="M 198.6499713715958 1415.271169231487
c 0 28.928666170160295 -7.0782906586562415 8.309297729726893 -15.387588388383136 8.309297729726893
S 167.87479459482952 1444.1998354016473 167.87479459482952 1415.271169231487
s 7.0782906586562415 -8.309297729726893 15.387588388383136 -8.309297729726893
S 198.6499713715958 1386.3425030613266 198.6499713715958 1415.271169231487
z" fill="none" stroke="none"></path>
<use xlink:href="#path-rd7nqx3aje-3" x="0" y="0" stroke="#fdbc40">
  <animateMotion begin="-0.4418175272373448s" dur="10s" keyPoints="0;1" keyTimes="0;1" repeatCount="indefinite" calcMode="linear">
    <mpath xlink:href="#path11"></mpath>
  </animateMotion>
</use><path id="path12" d="M 201.17223707489097 1856.013928618593
c 0 20.20660597052156 -4.944169545978679 5.804025119192364 -10.748194665171042 5.804025119192364
S 179.6758477445489 1876.2205345891145 179.6758477445489 1856.013928618593
s 4.944169545978679 -5.804025119192364 10.748194665171042 -5.804025119192364
S 201.17223707489097 1835.8073226480712 201.17223707489097 1856.013928618593
z" fill="none" stroke="none"></path>
<use xlink:href="#path-rd7nqx3aje-1" x="0" y="0" stroke="#fdbc40">
  <animateMotion begin="-9.78885960930155s" dur="10s" keyPoints="1;0" keyTimes="0;1" repeatCount="indefinite" calcMode="linear">
    <mpath xlink:href="#path12"></mpath>
  </animateMotion>
</use><path id="path13" d="M 209.63370216696492 1522.0842609012911
c 0 36.41223076166015 -8.909375611895566 10.458832240051319 -19.368207851946885 10.458832240051319
S 170.89728646307114 1558.4964916629513 170.89728646307114 1522.0842609012911
s 8.909375611895566 -10.458832240051319 19.368207851946885 -10.458832240051319
S 209.63370216696492 1485.672030139631 209.63370216696492 1522.0842609012911
z" fill="none" stroke="none"></path>
<use xlink:href="#path-rd7nqx3aje-3" x="0" y="0" stroke="#35cd4b">
  <animateMotion begin="-7.4137227153855285s" dur="10s" keyPoints="1;0" keyTimes="0;1" repeatCount="indefinite" calcMode="linear">
    <mpath xlink:href="#path13"></mpath>
  </animateMotion>
</use><path id="path14" d="M 221.72382833213254 1600.9430968560805
c 0 26.76648556844886 -6.5492464688757845 7.688245854767226 -14.23749232364301 7.688245854767226
S 193.24884368484652 1627.7095824245293 193.24884368484652 1600.9430968560805
s 6.5492464688757845 -7.688245854767226 14.23749232364301 -7.688245854767226
S 221.72382833213254 1574.1766112876317 221.72382833213254 1600.9430968560805
z" fill="none" stroke="none"></path>
<use xlink:href="#path-rd7nqx3aje-3" x="0" y="0" stroke="#fdbc40">
  <animateMotion begin="-7.815842927929704s" dur="10s" keyPoints="1;0" keyTimes="0;1" repeatCount="indefinite" calcMode="linear">
    <mpath xlink:href="#path14"></mpath>
  </animateMotion>
</use><path id="path15" d="M 243.41761428956931 1941.7129990769583
c 0 46.18672318761949 -11.301006737396257 13.266399213465172 -24.567405950861428 13.266399213465172
S 194.28280238784646 1987.8997222645778 194.28280238784646 1941.7129990769583
s 11.301006737396257 -13.266399213465172 24.567405950861428 -13.266399213465172
S 243.41761428956931 1895.5262758893389 243.41761428956931 1941.7129990769583
z" fill="none" stroke="none"></path>
<use xlink:href="#path-rd7nqx3aje-3" x="0" y="0" stroke="#fdbc40">
  <animateMotion begin="-6.541573584935159s" dur="10s" keyPoints="1;0" keyTimes="0;1" repeatCount="indefinite" calcMode="linear">
    <mpath xlink:href="#path15"></mpath>
  </animateMotion>
</use><path id="path16" d="M 265.4522525718556 1640.3831220913216
c 0 51.563207679536205 -12.616529538609921 14.810708588802953 -27.427238127412874 14.810708588802953
S 210.59777631702983 1691.9463297708578 210.59777631702983 1640.3831220913216
s 12.616529538609921 -14.810708588802953 27.427238127412874 -14.810708588802953
S 265.4522525718556 1588.8199144117855 265.4522525718556 1640.3831220913216
z" fill="none" stroke="none"></path>
<use xlink:href="#path-rd7nqx3aje-2" x="0" y="0" stroke="#fc625d">
  <animateMotion begin="-3.853974652533354s" dur="10s" keyPoints="1;0" keyTimes="0;1" repeatCount="indefinite" calcMode="linear">
    <mpath xlink:href="#path16"></mpath>
  </animateMotion>
</use><path id="path17" d="M 273.70106725831295 747.0070776274928
c 0 51.81639652675089 -12.67848000122628 14.88343304491781 -27.56191304614409 14.88343304491781
S 218.57724116602475 798.8234741542436 218.57724116602475 747.0070776274928
s 12.67848000122628 -14.88343304491781 27.56191304614409 -14.88343304491781
S 273.70106725831295 695.1906811007419 273.70106725831295 747.0070776274928
z" fill="none" stroke="none"></path>
<use xlink:href="#path-rd7nqx3aje-2" x="0" y="0" stroke="#fc625d">
  <animateMotion begin="-8.351302105253167s" dur="10s" keyPoints="1;0" keyTimes="0;1" repeatCount="indefinite" calcMode="linear">
    <mpath xlink:href="#path17"></mpath>
  </animateMotion>
</use></g>
</svg>