<?xml version="1.0" encoding="utf-8"?><svg xml:space="preserve" viewBox="0 0 100 100" y="0" x="0" xmlns="http://www.w3.org/2000/svg" id="" version="1.1" width="24px" height="24px" xmlns:xlink="http://www.w3.org/1999/xlink" style="width:100%;height:100%;background-size:initial;background-repeat-y:initial;background-repeat-x:initial;background-position-y:initial;background-position-x:initial;background-origin:initial;background-image:initial;background-color:rgba(255, 255, 255, 0);background-clip:initial;background-attachment:initial;animation-play-state:paused" ><g class="ldl-scale" style="transform-origin:50% 50%;transform:rotate(0deg) scale(0.8, 0.8);animation-play-state:paused" ><path fill="#333" d="M76.5 90h-53C16 90 10 84 10 76.5v-53C10 16 16 10 23.5 10h53C84 10 90 16 90 23.5v53C90 84 84 90 76.5 90z" style="fill:rgb(37, 184, 100);animation-play-state:paused" ></path>
<path fill="#abbd81" d="M73.3 33.5c-2.3-2.3-6.1-2.3-8.4 0L44.5 53.9l-9.4-9.4c-2.3-2.3-6.1-2.3-8.4 0-1.1 1.1-1.7 2.6-1.7 4.2s.6 3.1 1.7 4.2l13.6 13.6c1.1 1.1 2.6 1.7 4.2 1.7s3.1-.6 4.2-1.7L73.2 42c1.1-1.1 1.7-2.6 1.7-4.2s-.5-3.1-1.6-4.3z" style="fill:rgb(255, 255, 255);animation-play-state:paused" ></path>
<metadata xmlns:d="https://loading.io/stock/" style="animation-play-state:paused" ><d:name style="animation-play-state:paused" >ok</d:name>
<d:tags style="animation-play-state:paused" >ok,confirm,ready,positive,check,right,correct,affirmative,success</d:tags>
<d:license style="animation-play-state:paused" >by</d:license>
<d:slug style="animation-play-state:paused" >2x4q5m</d:slug></metadata></g></svg>