<svg xmlns="http://www.w3.org/2000/svg"  viewBox="0 0 48 48" width="512px" height="512px"><path fill="#00BCD4" d="M42,37c0,2.762-2.238,5-5,5H11c-2.762,0-5-2.238-5-5V11c0-2.762,2.238-5,5-5h26c2.762,0,5,2.238,5,5V37z"/><path fill="#FFF" d="M14 25.483V29h-1.993V19h3.76c.984 0 1.77.307 2.355.92C18.707 20.533 19 21.33 19 22.311s-.289 1.753-.868 2.321-1.381.852-2.406.852H14zM14.017 23.801h1.75c.383 0 .679-.125.889-.378.21-.252.314-.618.314-1.099 0-.499-.107-.896-.321-1.192-.214-.294-.501-.444-.861-.449h-1.771V23.801zM31 25.483V29h-1.993V19h3.76c.984 0 1.77.307 2.355.92C35.707 20.533 36 21.33 36 22.311s-.289 1.753-.868 2.321-1.381.852-2.406.852H31zM31.017 23.801h1.75c.383 0 .679-.125.889-.378.21-.252.314-.618.314-1.099 0-.499-.107-.896-.321-1.192-.214-.294-.501-.444-.861-.449h-1.771V23.801zM27 29h-2v-4.279h-3.02V29H20V19h1.98v4H25v-4h2V29z"/></svg>