<svg xml:space="preserve" viewBox="0 0 100 100" y="0" x="0" xmlns="http://www.w3.org/2000/svg" id="" version="1.1" style="height: 100%; width: 100%; background: rgb(255, 255, 255, 0);" width="20px" height="20px"><g class="ldl-scale" style="transform-origin: 50% 50%; transform: rotate(0deg);"><g class="ldl-ani"><g class="ldl-layer"><g class="ldl-ani" style="transform-origin: 50px 50px; animation: 1.11111s linear -0.598291s infinite normal forwards running static-4e2e44f7-7864-4ba7-bd6b-c750d02debb7;"><circle fill="#ffdc6c" r="27" cy="50" cx="50" style="fill: rgb(255, 220, 108);"></circle></g></g><g class="ldl-layer"><g class="ldl-ani" style="transform-origin: 50px 50px; animation: 1.11111s linear -0.641026s infinite normal forwards running static-4e2e44f7-7864-4ba7-bd6b-c750d02debb7;"><path fill="#f8b26a" d="M50 19.3c1.2 0 2.3.1 3.5.2L50 7.5l-3.5 12c1.2-.1 2.3-.2 3.5-.2z" style="fill: rgb(248, 178, 106);"></path></g></g><g class="ldl-layer"><g class="ldl-ani" style="transform-origin: 50px 50px; animation: 1.11111s linear -0.683761s infinite normal forwards running static-4e2e44f7-7864-4ba7-bd6b-c750d02debb7;"><path fill="#f8b26a" d="M37.7 21.9l-9-8.7 3 12.1c1.9-1.4 3.9-2.5 6-3.4z" style="fill: rgb(248, 178, 106);"></path></g></g><g class="ldl-layer"><g class="ldl-ani" style="transform-origin: 50px 50px; animation: 1.11111s linear -0.726496s infinite normal forwards running static-4e2e44f7-7864-4ba7-bd6b-c750d02debb7;"><path fill="#f8b26a" d="M25.3 31.8l-12.1-3 8.7 9c.9-2.2 2-4.2 3.4-6z" style="fill: rgb(248, 178, 106);"></path></g></g><g class="ldl-layer"><g class="ldl-ani" style="transform-origin: 50px 50px; animation: 1.11111s linear -0.769231s infinite normal forwards running static-4e2e44f7-7864-4ba7-bd6b-c750d02debb7;"><path fill="#f8b26a" d="M92.5 50l-12-3.5c.1 1.1.2 2.3.2 3.5s-.1 2.3-.2 3.5l12-3.5z" style="fill: rgb(248, 178, 106);"></path></g></g><g class="ldl-layer"><g class="ldl-ani" style="transform-origin: 50px 50px; animation: 1.11111s linear -0.811966s infinite normal forwards running static-4e2e44f7-7864-4ba7-bd6b-c750d02debb7;"><path fill="#f8b26a" d="M78.1 37.7l8.7-9-12.1 3c1.4 1.9 2.5 3.9 3.4 6z" style="fill: rgb(248, 178, 106);"></path></g></g><g class="ldl-layer"><g class="ldl-ani" style="transform-origin: 50px 50px; animation: 1.11111s linear -0.854701s infinite normal forwards running static-4e2e44f7-7864-4ba7-bd6b-c750d02debb7;"><path fill="#f8b26a" d="M68.2 25.3l3-12.1-9 8.7c2.2.9 4.2 2 6 3.4z" style="fill: rgb(248, 178, 106);"></path></g></g><g class="ldl-layer"><g class="ldl-ani" style="transform-origin: 50px 50px; animation: 1.11111s linear -0.897436s infinite normal forwards running static-4e2e44f7-7864-4ba7-bd6b-c750d02debb7;"><path fill="#f8b26a" d="M62.3 78.1l9 8.7-3-12.1c-1.9 1.4-3.9 2.5-6 3.4z" style="fill: rgb(248, 178, 106);"></path></g></g><g class="ldl-layer"><g class="ldl-ani" style="transform-origin: 50px 50px; animation: 1.11111s linear -0.940171s infinite normal forwards running static-4e2e44f7-7864-4ba7-bd6b-c750d02debb7;"><path fill="#f8b26a" d="M74.7 68.2l12.1 3-8.7-9c-.9 2.2-2 4.2-3.4 6z" style="fill: rgb(248, 178, 106);"></path></g></g><g class="ldl-layer"><g class="ldl-ani" style="transform-origin: 50px 50px; animation: 1.11111s linear -0.982906s infinite normal forwards running static-4e2e44f7-7864-4ba7-bd6b-c750d02debb7;"><path fill="#f8b26a" d="M50 80.7c-1.2 0-2.3-.1-3.5-.2l3.5 12 3.5-12c-1.2.1-2.3.2-3.5.2z" style="fill: rgb(248, 178, 106);"></path></g></g><g class="ldl-layer"><g class="ldl-ani" style="transform-origin: 50px 50px; animation: 1.11111s linear -1.02564s infinite normal forwards running static-4e2e44f7-7864-4ba7-bd6b-c750d02debb7;"><path fill="#f8b26a" d="M21.9 62.3l-8.7 9 12.1-3c-1.4-1.9-2.5-3.9-3.4-6z" style="fill: rgb(248, 178, 106);"></path></g></g><g class="ldl-layer"><g class="ldl-ani" style="transform-origin: 50px 50px; animation: 1.11111s linear -1.06838s infinite normal forwards running static-4e2e44f7-7864-4ba7-bd6b-c750d02debb7;"><path fill="#f8b26a" d="M31.8 74.7l-3 12.1 9-8.7c-2.2-.9-4.2-2-6-3.4z" style="fill: rgb(248, 178, 106);"></path></g></g><g class="ldl-layer"><g class="ldl-ani" style="transform-origin: 50px 50px; animation: 1.11111s linear -1.11111s infinite normal forwards running static-4e2e44f7-7864-4ba7-bd6b-c750d02debb7;"><path fill="#f8b26a" d="M19.3 50c0-1.2.1-2.3.2-3.5L7.5 50l12 3.5c-.1-1.2-.2-2.3-.2-3.5z" style="fill: rgb(248, 178, 106);"></path></g></g><metadata xmlns:d="https://loading.io/stock/"><d:name>sun</d:name><d:tags>burn,scorch,flame,hot,warm,light,bright,solar,drought,sun,weather</d:tags><d:license>pro</d:license><d:slug>p693vt</d:slug></metadata></g></g></svg>