<?xml version="1.0" encoding="utf-8"?><svg xml:space="preserve" viewBox="0 0 100 100" y="0" x="0" xmlns="http://www.w3.org/2000/svg" id="" version="1.1" width="24px" height="24px" xmlns:xlink="http://www.w3.org/1999/xlink" style="width:100%;height:100%;background-size:initial;background-repeat-y:initial;background-repeat-x:initial;background-position-y:initial;background-position-x:initial;background-origin:initial;background-image:initial;background-color:rgba(255, 255, 255,0);background-clip:initial;background-attachment:initial;animation-play-state:paused" ><g class="ldl-scale" style="transform-origin:50% 50%;transform:rotate(0deg) scale(0.8, 0.8);animation-play-state:paused" ><path fill="#333" d="M76.5 90h-53C16 90 10 84 10 76.5v-53C10 16 16 10 23.5 10h53C84 10 90 16 90 23.5v53C90 84 84 90 76.5 90z" style="fill:rgb(230, 236, 241);animation-play-state:paused" ></path>
<g style="animation-play-state:paused" ><path fill="#abbd81" d="M47.3 66.4L73.7 40c1.8-1.8 1.8-4.6 0-6.4-1.8-1.8-4.6-1.8-6.4 0L44.1 56.8 32.7 45.4c-1.8-1.8-4.6-1.8-6.4 0-1.8 1.8-1.8 4.6 0 6.4l14.6 14.6c.9.9 2 1.3 3.2 1.3s2.3-.5 3.2-1.3z" style="fill:rgb(230, 236, 241);animation-play-state:paused" ></path></g>
<metadata xmlns:d="https://loading.io/stock/" style="animation-play-state:paused" ><d:name style="animation-play-state:paused" >ok</d:name>
<d:tags style="animation-play-state:paused" >ok,confirm,ready,positive,check,right,correct,affirmative,success</d:tags>
<d:license style="animation-play-state:paused" >by</d:license>
<d:slug style="animation-play-state:paused" >2f6689</d:slug></metadata></g></svg>