<svg t="1687272974230" class="icon" viewBox="0 0 1024 1024" version="1.1" xmlns="http://www.w3.org/2000/svg" p-id="13892" width="200" height="200"><path d="M512 512m-416 0a416 416 0 1 0 832 0 416 416 0 1 0-832 0Z" fill="#E3FFFA" p-id="13893"></path><path d="M512 960C264.96 960 64 759.04 64 512S264.96 64 512 64s448 200.96 448 448-200.96 448-448 448z m0-832C300.256 128 128 300.256 128 512s172.256 384 384 384 384-172.256 384-384S723.744 128 512 128z" fill="#1DDDCB" p-id="13894"></path><path d="M392.896 725.056a32 32 0 0 1-32-32v-159.136H250.016a32 32 0 0 1 0-64h142.88a32 32 0 0 1 32 32v107.04l170.944-192.064a32 32 0 0 1 55.936 21.28v172.704l224.928-245.088a32 32 0 1 1 47.136 43.264l-280.512 305.632a32 32 0 0 1-55.584-21.632v-170.784l-170.944 192.064a32.064 32.064 0 0 1-23.904 10.72z" fill="#1DDDCB" p-id="13895"></path></svg>