<svg xmlns="http://www.w3.org/2000/svg"  viewBox="0 0 64 64" width="512px" height="512px" baseProfile="basic"><radialGradient id="6mg8lban2bXXHIdpfxs4Sa" cx="31.999" cy="30.5" r="30.3" gradientTransform="translate(0 2)" gradientUnits="userSpaceOnUse"><stop offset="0" stop-color="#f4e9c300"/><stop offset=".219" stop-color="#f8eecd00"/><stop offset=".644" stop-color="#fdf4dc00"/><stop offset="1" stop-color="#fff6e100"/></radialGradient><path fill="url(#6mg8lban2bXXHIdpfxs4Sa)" d="M51.03,37.34c0.16,0.98,1.08,1.66,2.08,1.66h5.39c2.63,0,4.75,2.28,4.48,4.96	C62.74,46.3,60.64,48,58.29,48H51c-1.22,0-2.18,1.08-1.97,2.34c0.16,0.98,1.08,1.66,2.08,1.66h6.39c1.24,0,2.37,0.5,3.18,1.32	C61.5,54.13,62,55.26,62,56.5c0,2.49-2.01,4.5-4.5,4.5h-49c-1.52,0-2.9-0.62-3.89-1.61C3.62,58.4,3,57.02,3,55.5	C3,52.46,5.46,50,8.5,50H14c1.22,0,2.18-1.08,1.97-2.34C15.81,46.68,14.89,47,13.89,47H5.5c-2.63,0-4.75-2.28-4.48-4.96	C1.26,39.7,3.36,38,5.71,38H15c0.55,0,1.05-0.22,1.41-0.59C16.78,37.05,17,36.55,17,36c0-1.1-0.9-2-2-2H5.5C2.46,34,0,31.54,0,28.5	S2.46,23,5.5,23H14c1.1,0,2.1-0.45,2.83-1.17C17.55,21.1,18,20.1,18,19c0-2.21-1.79-4-4-4H7.5c-1.52,0-2.9-0.62-3.89-1.61	S2,11.02,2,9.5C2,6.46,4.46,4,7.5,4h49c3.21,0,5.8,2.79,5.47,6.06C61.68,12.92,60.11,15,57.24,15H53.5c-2.49,0-4.5,2.01-4.5,4.5	c0,1.24,0.5,2.37,1.32,3.18C51.13,23.5,52.26,24,53.5,24h5c3.21,0,5.8,2.79,5.47,6.06C63.68,32.92,61.11,35,58.24,35H53	C51.78,35,50.82,36.08,51.03,37.34z"/><linearGradient id="6mg8lban2bXXHIdpfxs4Sb" x1="32" x2="32" y1="54" y2="10" gradientUnits="userSpaceOnUse"><stop offset="0" stop-color="#155cde"/><stop offset=".278" stop-color="#1f7fe5"/><stop offset=".569" stop-color="#279ceb"/><stop offset=".82" stop-color="#2cafef"/><stop offset="1" stop-color="#2eb5f0"/></linearGradient><path fill="url(#6mg8lban2bXXHIdpfxs4Sb)" d="M28,54H13c-1.657,0-3-1.343-3-3V36c0-1.657,1.343-3,3-3h15c1.657,0,3,1.343,3,3v15	C31,52.657,29.657,54,28,54z M54,51V36c0-1.657-1.343-3-3-3H36c-1.657,0-3,1.343-3,3v15c0,1.657,1.343,3,3,3h15	C52.657,54,54,52.657,54,51z M31,28V13c0-1.657-1.343-3-3-3H13c-1.657,0-3,1.343-3,3v15c0,1.657,1.343,3,3,3h15	C29.657,31,31,29.657,31,28z M54,28V13c0-1.657-1.343-3-3-3H36c-1.657,0-3,1.343-3,3v15c0,1.657,1.343,3,3,3h15	C52.657,31,54,29.657,54,28z"/></svg>