<svg xmlns="http://www.w3.org/2000/svg"  viewBox="0 0 48 48" width="512px" height="512px"><path fill="#64b5f6" d="M37.72 28L34.57 28 24.86 20 28 20zM23.14 20L13.43 28 10.28 28 20 20z"/><path fill="#455a64" d="M11,10V6c0-1.105,0.895-2,2-2h22c1.105,0,2,0.895,2,2v4H11z"/><path fill="#bbdefb" d="M11,8h26v11c0,1.105-0.895,2-2,2H13c-1.105,0-2-0.895-2-2V8z"/><path fill="#42a5f5" d="M19 11H33V13H19zM15 11H17V13H15zM19 15H33V17H19zM15 15H17V17H15z"/><path fill="#546e7a" d="M4 27H22V40H4z"/><path fill="#bbdefb" d="M6 29H20V37H6z"/><path fill="#455a64" d="M11 40H15V42H11zM17 42c-2 0-6 0-8 0s-2 2-2 2h12C19 44 19 42 17 42z"/><path fill="#546e7a" d="M26 27H44V40H26z"/><path fill="#bbdefb" d="M28 29H42V37H28z"/><path fill="#455a64" d="M33 40H37V42H33zM39 42c-2 0-6 0-8 0s-2 2-2 2h12C41 44 41 42 39 42z"/></svg>