<?xml version="1.0" standalone="no"?><!DOCTYPE svg PUBLIC "-//W3C//DTD SVG 1.1//EN" "http://www.w3.org/Graphics/SVG/1.1/DTD/svg11.dtd"><svg t="1686734292070" class="icon" viewBox="0 0 1024 1024" version="1.1" xmlns="http://www.w3.org/2000/svg" p-id="74156" xmlns:xlink="http://www.w3.org/1999/xlink" width="200" height="200"><path d="M388.266667 290.133333l36.693333 124.928a177.152 177.152 0 0 0 117.248 334.165334l36.352 124.928A307.2 307.2 0 0 1 388.266667 290.133333z" fill="#96DDFF" p-id="74157"></path><path d="M551.936 782.677333a307.2 307.2 0 0 1-372.053333-240.981333A307.2 307.2 0 0 0 578.56 874.154667z" fill="#69BAF9" p-id="74158"></path><path d="M604.7744 643.6864l57.6 214.971733-81.92 21.947734-57.617067-214.971734z" fill="#D8E3F0" p-id="74159"></path><path d="M494.0288 215.842133l74.939733 261.341867-117.469866 33.672533-74.922667-261.341866z" fill="#FCFEFF" p-id="74160"></path><path d="M376.541867 249.3952l53.316266-15.291733 74.922667 261.341866-53.2992 15.291734zM498.295467 568.968533l-18.909867-65.9456 61.696-17.681066 18.909867 65.9456zM319.7952 148.3776a12.970667 12.970667 0 0 1 8.9088-16.042667l143.872-41.250133a12.970667 12.970667 0 0 1 16.042667 8.874667A45.568 45.568 0 0 1 457.386667 156.330667l-81.220267 23.296a45.568 45.568 0 0 1-56.3712-31.249067z" fill="#D8E3F0" p-id="74161"></path><path d="M376.132267 179.592533l81.2032-23.296 18.5344 64.648534-81.2032 23.278933z" fill="#D8E3F0" p-id="74162"></path><path d="M763.733333 923.136H204.629333v-22.698667a56.832 56.832 0 0 1 56.832-56.832h445.44a56.832 56.832 0 0 1 56.832 56.661334v22.869333z" fill="#69BAF9" p-id="74163"></path><path d="M717.892267 652.373333l-243.319467 65.194667-14.711467-54.8864 243.319467-65.194667z" fill="#FCFEFF" p-id="74164"></path><path d="M307.2 589.482667m-67.925333 0a67.925333 67.925333 0 1 0 135.850666 0 67.925333 67.925333 0 1 0-135.850666 0Z" fill="#FCFEFF" p-id="74165"></path><path d="M642.048 153.941333l239.104 0 0 292.352-239.104 0 0-292.352Z" fill="#FFE3BA" p-id="74166"></path><path d="M846.848 136.533333h-170.666667a51.2 51.2 0 0 0-51.2 51.2v224.597334a51.2 51.2 0 0 0 51.2 51.2h170.666667a51.2 51.2 0 0 0 51.2-51.2V187.733333a51.2 51.2 0 0 0-51.2-51.2z m17.066667 275.456a17.066667 17.066667 0 0 1-17.066667 17.066667h-170.666667a17.066667 17.066667 0 0 1-17.066666-17.066667V187.733333a17.066667 17.066667 0 0 1 17.066666-17.066666h170.666667a17.066667 17.066667 0 0 1 17.066667 17.066666z" fill="#3D3D63" p-id="74167"></path><path d="M813.226667 217.770667h-58.709334a17.066667 17.066667 0 0 0 0 34.133333h58.709334a17.066667 17.066667 0 0 0 0-34.133333zM813.226667 283.136h-58.709334a17.066667 17.066667 0 0 0 0 34.133333h58.709334a17.066667 17.066667 0 0 0 0-34.133333zM813.226667 348.501333h-58.709334a17.066667 17.066667 0 1 0 0 34.133334h58.709334a17.066667 17.066667 0 0 0 0-34.133334zM697.856 222.72l-2.218667 2.56-1.536 2.901333-1.024 3.242667a23.210667 23.210667 0 0 0 0 3.413333 17.066667 17.066667 0 0 0 5.12 11.946667 17.066667 17.066667 0 0 0 11.946667 5.12 17.066667 17.066667 0 0 0 12.117333-5.12 17.066667 17.066667 0 0 0 0-24.064 17.066667 17.066667 0 0 0-24.405333 0zM721.92 288.085333a17.066667 17.066667 0 0 0-15.36-4.608 10.24 10.24 0 0 0-3.242667 1.024 9.557333 9.557333 0 0 0-2.901333 1.536l-2.56 2.048a17.066667 17.066667 0 0 0 0 24.234667 17.066667 17.066667 0 0 0 27.818667-18.602667 20.309333 20.309333 0 0 0-3.754667-5.632zM697.856 353.621333a17.066667 17.066667 0 0 0-5.12 11.946667 17.066667 17.066667 0 0 0 1.365333 6.656 14.848 14.848 0 0 0 3.754667 5.461333 17.066667 17.066667 0 0 0 24.064 0 17.066667 17.066667 0 0 0 3.754667-5.461333 17.066667 17.066667 0 0 0 1.194666-6.656 17.066667 17.066667 0 0 0-4.949333-11.946667 17.066667 17.066667 0 0 0-24.064 0zM825.685333 906.069333h-44.714666v-5.632a74.24 74.24 0 0 0-74.069334-74.069333h-35.498666l-36.010667-134.314667 86.869333-23.210666A17.066667 17.066667 0 0 0 733.866667 648.533333l-14.677334-54.954666a17.066667 17.066667 0 0 0-20.992-11.946667l-242.858666 64.512a17.066667 17.066667 0 0 0-11.605334 20.821333l14.848 54.954667a17.066667 17.066667 0 0 0 20.821334 12.117333l41.472-11.093333 3.754666 13.482667a156.501333 156.501333 0 0 1-176.981333-72.362667A85.333333 85.333333 0 0 0 341.333333 512a160.085333 160.085333 0 0 1 72.362667-72.533333l22.528 78.336a17.066667 17.066667 0 0 0 21.162667 11.605333l11.434666-3.242667 14.165334 49.664a17.066667 17.066667 0 0 0 21.162666 11.605334l61.610667-17.066667a17.066667 17.066667 0 0 0 11.776-21.162667L563.2 498.346667l11.434667-3.242667a17.066667 17.066667 0 0 0 11.605333-21.162667l-75.605333-261.290666a17.066667 17.066667 0 0 0-20.992-11.776h-1.706667l-9.898667-34.133334a62.464 62.464 0 0 0 27.136-69.973333 29.866667 29.866667 0 0 0-37.034666-20.48L324.266667 117.418667a30.037333 30.037333 0 0 0-20.48 37.205333 62.634667 62.634667 0 0 0 60.245333 45.056l9.898667 34.133333h-1.877334a17.066667 17.066667 0 0 0-11.605333 22.186667l6.826667 24.064a324.266667 324.266667 0 0 0-95.744 546.133333h-9.898667A74.24 74.24 0 0 0 187.733333 900.437333v5.632H143.018667a17.066667 17.066667 0 0 0 0 34.133334h682.666666a17.066667 17.066667 0 0 0 0-34.133334z m-189.610666-79.701333h-52.565334l-30.037333-112.298667 48.981333-13.141333z m-149.504-129.706667l-5.973334-22.016 210.432-56.32 5.973334 22.016zM358.4 589.482667a51.2 51.2 0 1 1-51.2-51.2 51.2 51.2 0 0 1 51.2 51.2z m152.405333-40.277334l-9.557333-33.109333 27.818667-8.362667 9.557333 33.28z m37.888-82.261333l-85.333333 24.234667-7.850667-27.477334 84.48-24.234666zM482.645333 238.933333l48.128 168.277334-85.333333 24.234666-48.128-168.277333z m-85.333333-45.738666l48.469333-13.824 9.045334 31.914666-48.298667 13.824z m-25.6-28.501334a28.672 28.672 0 0 1-34.133333-15.701333l135.338666-38.741333a28.330667 28.330667 0 0 1-20.309333 31.061333z m-177.493333 417.109334a290.133333 290.133333 0 0 1 182.442666-269.312l26.794667 93.013333a194.730667 194.730667 0 0 0-97.28 99.157333 85.333333 85.333333 0 0 0 1.024 170.666667h5.973333a194.730667 194.730667 0 0 0 170.666667 102.4 189.610667 189.610667 0 0 0 48.64-6.485333l15.189333 56.661333H328.362667a288.085333 288.085333 0 0 1-134.144-246.101333z m552.618666 324.266666H221.866667v-5.632a39.936 39.936 0 0 1 39.936-39.936h445.098666a39.936 39.936 0 0 1 39.936 39.936z" fill="#3D3D63" p-id="74168"></path><path d="M284.501333 589.482667A22.698667 22.698667 0 1 0 307.2 566.784a22.528 22.528 0 0 0-22.698667 22.698667z" fill="#3D3D63" p-id="74169"></path></svg>