<svg t="1687313761062" class="icon" viewBox="0 0 1024 1024" version="1.1" xmlns="http://www.w3.org/2000/svg" p-id="10108" width="200" height="200"><path d="M644.8 436.7m-303.4 0a303.4 303.4 0 1 0 606.8 0 303.4 303.4 0 1 0-606.8 0Z" fill="#FFE4CC" p-id="10109"></path><path d="M622.2 138H385.7c-69.8 0-126.5 56.6-126.5 126.5V395h94.2V265.4c0-18.3 14.9-33.2 33.2-33.2h234.6c18.3 0 33.2 14.9 33.2 33.2V395h94.2V264.5c0-69.9-56.6-126.5-126.4-126.5z" fill="#F88E20" p-id="10110"></path><path d="M748.6 406.8h-94.2c-6.5 0-11.8-5.3-11.8-11.8V265.4c0-11.8-9.6-21.4-21.4-21.4H386.6c-11.8 0-21.4 9.6-21.4 21.4V395c0 6.5-5.3 11.8-11.8 11.8h-94.2c-6.5 0-11.8-5.3-11.8-11.8V264.5c0-76.2 62-138.3 138.3-138.3h236.5c76.2 0 138.2 62 138.2 138.3V395c0 6.5-5.3 11.8-11.8 11.8z m-82.4-23.6h70.6V264.5c0-63.3-51.4-114.7-114.6-114.7H385.7c-63.3 0-114.7 51.5-114.7 114.7v118.7h70.6V265.4c0-24.8 20.2-45 45-45h234.6c24.8 0 45 20.2 45 45v117.8z" fill="#441B00" p-id="10111"></path><path d="M654.4 406.8h-301c-6.5 0-11.8-5.3-11.8-11.8V265.4c0-24.8 20.2-45 45-45h234.6c24.8 0 45 20.2 45 45V395c0 6.5-5.3 11.8-11.8 11.8z m-289.2-23.6h277.4V265.4c0-11.8-9.6-21.4-21.4-21.4H386.6c-11.8 0-21.4 9.6-21.4 21.4v117.8z" fill="#441B00" p-id="10112"></path><path d="M789.5 874.4H215c-40.3 0-73-32.7-73-73v-381c0-40.3 32.7-73 73-73h574.6c40.3 0 73 32.7 73 73v381c-0.1 40.3-32.8 73-73.1 73z" fill="#FFFFFF" p-id="10113"></path><path d="M789.5 886.2H215c-46.7 0-84.8-38-84.8-84.8v-381c0-46.7 38-84.8 84.8-84.8h574.6c46.7 0 84.8 38 84.8 84.8v381c-0.1 46.8-38.2 84.8-84.9 84.8zM215 359.2c-33.8 0-61.2 27.5-61.2 61.2v381c0 33.8 27.5 61.2 61.2 61.2h574.5c33.7 0 61.2-27.5 61.3-61.3v-381c0-33.8-27.5-61.2-61.2-61.2H215z" fill="#441B00" p-id="10114"></path><path d="M296.5 685.8H142c-6.5 0-11.8-5.3-11.8-11.8s5.3-11.8 11.8-11.8h154.5c6.5 0 11.8 5.3 11.8 11.8s-5.3 11.8-11.8 11.8zM388.1 685.8h-36.7c-6.5 0-11.8-5.3-11.8-11.8s5.3-11.8 11.8-11.8h36.7c6.5 0 11.8 5.3 11.8 11.8s-5.3 11.8-11.8 11.8zM861.1 784H588.9c-6.5 0-11.8-5.3-11.8-11.8s5.3-11.8 11.8-11.8h272.2c6.5 0 11.8 5.3 11.8 11.8s-5.3 11.8-11.8 11.8zM536.5 784H382c-6.5 0-11.8-5.3-11.8-11.8s5.3-11.8 11.8-11.8h154.5c6.5 0 11.8 5.3 11.8 11.8S543 784 536.5 784z" fill="#441B00" p-id="10115"></path><path d="M890.9 575.6H114.3c-13 0-23.6-10.6-23.6-23.6v-48.3c0-13 10.6-23.6 23.6-23.6H891c13 0 23.6 10.6 23.6 23.6V552c-0.1 13-10.7 23.6-23.7 23.6z" fill="#FFFFFF" p-id="10116"></path><path d="M890.9 587.4H114.3c-19.5 0-35.4-15.9-35.4-35.4v-48.3c0-19.5 15.9-35.4 35.4-35.4H891c19.5 0 35.4 15.9 35.4 35.4V552c-0.2 19.5-16.1 35.4-35.5 35.4z m-776.6-95.5c-6.5 0-11.8 5.3-11.8 11.8V552c0 6.5 5.3 11.8 11.8 11.8h776.6c6.5 0 11.9-5.3 11.9-11.9v-48.2c0-6.5-5.3-11.8-11.8-11.8H114.3z" fill="#441B00" p-id="10117"></path><path d="M594 620.5H411.5c-13 0-23.6-10.6-23.6-23.6V460.7c0-13 10.6-23.6 23.6-23.6H594c13 0 23.6 10.6 23.6 23.6v136.2c0 13-10.6 23.6-23.6 23.6z" fill="#F88E20" p-id="10118"></path><path d="M594 632.3H411.5c-19.5 0-35.4-15.9-35.4-35.4V460.7c0-19.5 15.9-35.4 35.4-35.4H594c19.5 0 35.4 15.9 35.4 35.4v136.2c0 19.5-15.9 35.4-35.4 35.4zM411.5 448.9c-6.5 0-11.8 5.3-11.8 11.8v136.2c0 6.5 5.3 11.8 11.8 11.8H594c6.5 0 11.8-5.3 11.8-11.8V460.7c0-6.5-5.3-11.8-11.8-11.8H411.5z" fill="#441B00" p-id="10119"></path><path d="M502.8 568c-22.8 0-41.4-18.6-41.4-41.4s18.6-41.4 41.4-41.4 41.4 18.6 41.4 41.4-18.6 41.4-41.4 41.4z m0-59.2c-9.8 0-17.8 8-17.8 17.8s8 17.8 17.8 17.8 17.8-8 17.8-17.8-8-17.8-17.8-17.8z" fill="#FFFFFF" p-id="10120"></path></svg>