<?xml version="1.0" standalone="no"?><!DOCTYPE svg PUBLIC "-//W3C//DTD SVG 1.1//EN" "http://www.w3.org/Graphics/SVG/1.1/DTD/svg11.dtd"><svg t="1686733946240" class="icon" viewBox="0 0 1024 1024" version="1.1" xmlns="http://www.w3.org/2000/svg" p-id="46305" xmlns:xlink="http://www.w3.org/1999/xlink" width="200" height="200"><path d="M736.768 898.368a807.936 807.936 0 0 1-217.6 91.648L512 991.68l-7.2-1.664a807.744 807.744 0 0 1-217.6-91.648C141.184 808.768 64 686.304 64 544.192V203.264L512 31.488l448 171.776v340.928c0 142.112-77.184 264.576-223.232 354.176zM896 247.072L512 99.84 128 247.072v297.12c0 268.192 330.56 367.52 384 381.792 53.344-14.336 384-114.208 384-381.792V247.072z m-220.128 442.08l-107.744-107.744a160.32 160.32 0 1 1 45.248-45.248l107.744 107.744zM480 352a96 96 0 1 0 96 96 96 96 0 0 0-96-96z" fill="#3399FF" p-id="46306"></path></svg>