<svg xmlns="http://www.w3.org/2000/svg"  viewBox="0 0 48 48" width="512px" height="512px"><path fill="#424242" d="M24,4c-5.514,0-10,4.486-10,10v4h4v-4c0-3.309,2.691-6,6-6s6,2.691,6,6v4h4v-4C34,8.486,29.514,4,24,4"/><path fill="#FB8C00" d="M36,44H12c-2.209,0-4-1.791-4-4V22c0-2.209,1.791-4,4-4h24c2.209,0,4,1.791,4,4v18C40,42.209,38.209,44,36,44"/><path fill="#AF5902" d="M22.322 34c0-1.055.117-1.888.351-2.497.233-.611.612-1.14 1.136-1.589.524-.448.922-.857 1.195-1.23.272-.371.408-.781.408-1.229 0-1.091-.461-1.637-1.381-1.637-.424 0-.768.158-1.029.477s-.399.748-.414 1.291H19c.014-1.446.46-2.572 1.338-3.377C21.215 23.403 22.446 23 24.031 23c1.578 0 2.801.373 3.669 1.116.867.744 1.3 1.803 1.3 3.175 0 .601-.117 1.146-.351 1.639-.233.489-.608.99-1.125 1.504l-1.221 1.16c-.347.34-.588.688-.722 1.045-.135.359-.208.813-.224 1.361H22.322zM21.873 37.183c0-.532.189-.966.572-1.308.382-.339.857-.51 1.428-.51s1.046.171 1.427.51c.383.342.573.775.573 1.308 0 .53-.19.966-.573 1.307C24.919 38.83 24.443 39 23.873 39s-1.046-.17-1.428-.511C22.063 38.148 21.873 37.713 21.873 37.183z"/></svg>