<svg t="1687271648643" class="icon" viewBox="0 0 1024 1024" version="1.1" xmlns="http://www.w3.org/2000/svg" p-id="12894" width="200" height="200"><path d="M198.3 372.3h629.3v443.4H198.3z" fill="#54BDDD" p-id="12895"></path><path d="M602.1 514.3l-90.9-20-94.4 20V203.7h185.3z" fill="#EAD9C3" p-id="12896"></path><path d="M158 202.1h713.7v168.1H158z" fill="#E8E8E8" p-id="12897"></path><path d="M880.4 219.1c0-10.6-8.6-19.3-19.3-19.3H177.3c-10.6 0-19.3 8.6-19.3 19.3v2c2.8-7.2 9.8-12.4 18-12.4h96.9c-10.6 0-19.3 8.6-19.3 19.3v132.1c0 3.8 1.1 7.4 3 10.3h541.1c4.9-3.5 8.1-9.2 8.1-15.7v-132c0-10.6-8.6-19.3-19.3-19.3h73.6c10.6 0 19.3 8.6 19.3 19.3v132.1c0 1.1-0.1 2.1-0.3 3.1 0.8-2.1 1.2-4.4 1.2-6.7V219.1z" fill="#E8E8E8" p-id="12898"></path><path d="M829.7 818.3h1v5.8h-1zM281.2 818.3h474.9v5.8H281.2zM797.7 370.5h-541c3.4 5.3 9.4 8.9 16.2 8.9h-87.2v0.1h95.6v275h474.9V374.2h73.6v280.3h1V374.1h-44.1c4 0 7.8-1.3 11-3.6z" fill="#54BDDD" p-id="12899"></path><path d="M830.7 654.4h6V733h-6zM829.7 654.4h1V733h-1zM281.2 654.4h474.9V733H281.2z" fill="#7CCEE0" p-id="12900"></path><path d="M830.7 733h6v85.3h-6zM829.7 733h1v85.3h-1z" fill="#3AB1CC" p-id="12901"></path><path d="M256.7 370.5s-0.1 0 0 0l-79.4-0.1c-10.6 0-19.3-8.6-19.3-19.3v-130c-0.8 2.2-1.3 4.5-1.3 6.9v132.1c0 10.6 8.6 19.3 19.3 19.3h9.7v-8.9h71z" fill="#54BDDD" p-id="12902"></path><path d="M177.3 370.5h79.3c-1.9-3-3-6.5-3-10.3V228c0-10.6 8.6-19.3 19.3-19.3l0.8-8.9h-96.4c-8.2 0-16.5 14.1-19.3 21.3v130.1c0 10.6 8.6 19.3 19.3 19.3z" fill="#F2F0F0" p-id="12903"></path><path d="M256.7 370.5h-71v8.9h87.2c-6.8 0-12.8-3.5-16.2-8.9z" fill="#54BDDD" p-id="12904"></path><path d="M187.6 818.3V733h93.6-93.6v-78.6h93.6V379.5h-95.6l4 443.7 91.6 1v-5.9z" fill="#74C8E2" p-id="12905"></path><path d="M187.6 654.4h93.6V733h-93.6z" fill="#95D6E4" p-id="12906"></path><path d="M861.1 370.5h-63.3l-0.1 0.1h33v3.5h29.5c9.6 0 17.5-7 19-16.2-2.8 7.3-9.8 12.6-18.1 12.6z" fill="#54BDDD" p-id="12907"></path><path d="M879.4 222.7c0-10.6-8.6-19.3-19.3-19.3h-73.6c10.6 0 19.3 8.6 19.3 19.3v132.1c0 6.5-3.2 12.2-8.1 15.7H861c8.3 0 15.3-5.2 18.1-12.6 0.2-1 0.3-2 0.3-3.1V222.7z" fill="#D5D5D5" p-id="12908"></path><path d="M797.7 370.5c-3.1 2.2-7 3.5-11.1 3.5h44.1v-3.5h-33zM756.1 824.2h73.6v3.6h-73.6zM756.1 818.3h73.6v5.8h-73.6z" fill="#54BDDD" p-id="12909"></path><path d="M756.1 374.2h73.6v280.3h-73.6z" fill="#4DAECB" p-id="12910"></path><path d="M756.1 654.4h73.6V733h-73.6z" fill="#72BECE" p-id="12911"></path><path d="M853.9 382.5H170.1c-17.2 0-31.3-14-31.3-31.3V219.1c0-17.2 14-31.3 31.3-31.3h67.6c6.6 0 12 5.4 12 12s-5.4 12-12 12h-67.6c-4 0-7.3 3.3-7.3 7.3v132.1c0 4 3.3 7.3 7.3 7.3h683.8c4 0 7.3-3.3 7.3-7.3V219.1c0-4-3.3-7.3-7.3-7.3H279.1c-6.6 0-12-5.4-12-12s5.4-12 12-12h574.8c17.2 0 31.3 14 31.3 31.3v132.1c0 17.2-14.1 31.3-31.3 31.3z" fill="#3D6072" p-id="12912"></path><path d="M427.6 425.2c-2.7 1-8 0.7-9-1.1-5.2-9.8-9.3-20.3-13-28.5 0.5-11.2 7.6-17.4 15-14 5.2 2.4 9.9 7.1 13.8 11.8 7.1 8.4 2.7 28.3-6.8 31.8zM611.1 758.5c1 9.2-9.9 24.4-16.4 24.1-4.8-0.2-10.6-11.5-10.5-20.5 0-7.5 9.6-17.9 16.1-17.3 7.3 0.7 10.1 6.8 10.8 13.7zM557.5 525.3c-6.8 8.9-12 17.8-21.3 11.7-3.6-2.4-7.3-10.1-6.5-14.5 0.9-5.6 5.4-13.2 9.8-14.7 12.5-4.4 11.4 10.9 18 17.5zM521.3 574.8c-2.5 0.5-5 1.4-10.1 2.9 1.4-11.5 2.6-20.9 4.4-34.8 6.3 3.3 10.9 4.1 13.3 7.2 3.7 4.9 8.6 11.6 8.3 17.1-0.8 10.7-10 6.4-15.9 7.6zM502.9 803.7c7.9-2.3 14.1-4.1 20.3-5.8 1.4 1.4 2.8 2.9 4.1 4.3-8.8 5.6-8.5 12.1-4.7 19.5M720 806.4c8.2-5.7 12 3.9 21.5 6.5M355.5 602.9c-1.6 5.8-6.4 10.4-9.8 15.5l-4.2-1.5c-1.2-6.5-3.4-12.9-3.4-19.4 0-4.1 2.8-8.9 5.6-11.8 1.1-1.2 7 0.5 8.2 2.7 2.3 4.2 4.7 10.4 3.6 14.5zM463.3 396.4c4 19.9-2.2 26.7-20.6 20.8 7.6-15.7 9.3-17.4 20.6-20.8zM627.1 780.8c2.5-13.5 8.5-17.9 27-18.7-8 19.2-11.5 21.5-27 18.7zM271.7 466.1c3.2 9.5 0.3 13.6-15.9 19.7-1.1-5.5-3.5-10.3-2.5-13.9 1.1-4.1 4.9-7.7 8.3-10.3 4.6-3.3 8.2-1.1 10.1 4.5zM781.7 417.6c15.3 17.8 15.3 17.8 12.1 28.7-13.4-8.1-14.1-9.9-12.1-28.7zM360.4 803.6c-0.9-6.2 4-9.3 9.4-9.4 5.1-0.1 10.4 1.2 10.8 8.1 0.4 7.1-3.9 9.3-11 9.9-3.2-2.9-8.7-5.2-9.2-8.6zM667.5 463.1c12.9 2.9 14.6 5.5 13.7 22.4-13-5.6-13-5.6-13.7-22.4zM245.7 715.9c5.5 5.7 2.7 10.6-1.9 15-5.1-1-10.1-1.9-15.1-2.8 6.5-12.8 12.3-17 17-12.2zM589 676.7c-6.1 0.8-12.2 2.1-18.2 2.3-5.2 0.2-7-4.8-3.6-10 1.5-2.3 4.1-3.6 6.7-5.8 5.6 3.7 10.7 7.1 15.8 10.6-0.3 0.9-0.5 1.9-0.7 2.9zM458.5 685.5c0.5 3.4-3.2 10.6-5.6 10.9-8.7 1.1-9.2-7.1-11-16.2 7.9-1.8 15-5.8 16.6 5.3zM629.7 737.6c-2.1 0.8-6.6-0.2-7-1.5-1.2-4.2-2-9.3-1-13.4 0.7-3.1 4.5-5.2 9.6-10.6 1.2 7.7 1.6 10.6 2.2 13.4 0.9 4.9 1.4 10.1-3.8 12.1zM425 814.6c5.2-1.2 10.7-0.2 16.1-0.1 0.2 1.9 0.4 3.7 0.5 5.6M425 481.4c-0.8 3.8-4.6 9.3-7.3 9.5-2.9 0.2-6.1-5-10.8-9.4 4.5-3.6 7-6.9 10-7.7 4.9-1.3 9.3 1.4 8.1 7.6zM697.5 637.3c-4.5 3.9-8.9 7.7-16.2 14.2-0.1-7.9-1.7-13.8 0.2-16.8 4.4-7.1 10.1-4.8 16 2.6zM813.3 666c1.7-6.5 3.5-13.2 5.7-21.6 8.7 3.8 10.2 9.4 7.5 16.6-2.5 6.2-6.2 10-13.2 5zM747 784.3c-6.7-5.3-12.2-9.6-19-15 19-2 22.9 1.1 19 15zM632.4 546.7c-2 0.5-7.3-4.8-7.3-7.3 0.1-8.3 4.7-11.6 12.3-8.6 2.1 7 2.9 13.8-5 15.9zM794.6 714.2c6.4-9.2 12.2-3.6 19-0.1-9.2 9.9-9.2 9.9-19 0.1zM269.1 652c-1.3-0.5-2.6-1.1-3.9-1.6 0.6-5.5 1.2-11 2.1-19.8 5.5 5 8.5 7.7 12.4 11.3-4.4 4.2-7.5 7.2-10.6 10.1zM643.8 615c-4.1 6.8-7.5 12.6-10.9 18.3-3.5-17.7-3.5-17.7 10.9-18.3zM304.7 798.3c0.6-0.1 1.3 1.6 2.8 3.4-1.9 3.5-4 7.4-6.1 11.2-1.7 0-3.3 0-5 0.1-0.6-4.1-2.5-8.9-1.3-12.2 0.7-2.1 6.2-2 9.6-2.5zM295.9 401.5c8.1-0.8 8.1-0.8 14.1 4.8-10.6 6-10.6 6-14.1-4.8zM216.9 567c7.1 9.1 7.1 9.1-4.1 19-0.9-8.5-2.3-14.8 4.1-19zM627.3 408.7c-1.9 8.3-3.1 14-4.7 21.3-7.7-12.6-7.7-12.6 4.7-21.3zM572.8 550.9c1.7 7.5 2.9 12.9 4.6 20.4-12.2-6.4-12.3-6.8-4.6-20.4zM448.3 557.1c-3.9 2.8-7.8 4.8-11.1-0.3-0.8-1.3 0.7-6.6 2.2-7.2 5.1-2.4 7.8 1 8.9 7.5zM516.1 780.1c5.1 1.4 10.2 2.9 16.2 4.6-8.7 7.6-8.7 7.6-16.2-4.6zM345.9 465.8c-4.5-1-8.9-2.1-15-3.5 7.1-7.7 11.9-10.5 15 3.5zM635.9 584.7c3.2-2.2 6.5-4.3 12.5-8.3 0.4 13.2-3.7 14.8-10.5 12.3-0.7-0.3-1-1.8-2-4zM796.8 737.5c4.5 4.7 3.1 9.3-4.3 14.2 0-4.7 0-9.4 0.2-14.1 0-0.2 3.3-0.9 4.1-0.1zM371.2 744.3l14-4c-5.7 10.5-5.7 10.5-14 4zM441.6 789.2c3.3 2.4 6.7 4.8 11.5 8.3-9 5.5-12.2 2.4-13.9-4.4l2.4-3.9zM234.4 796.4c-4.1 7.4-6.8 12.3-11.7 21 2.6-14.9 2.7-14.9 11.7-21zM705.4 793.7c-2.6 3.2-5.3 6.5-9.6 11.8 0-13.9 0-13.9 9.6-11.8zM326.3 711.8c4.8 3.6 8.8 6.5 15.6 11.5-13.3-1.8-13.3-1.8-15.6-11.5zM709.7 543.9c1.7 0.2 3.2 2.5 4.9 4-1.2 1.7-2.1 4.2-3.5 4.7-1.3 0.4-3.2-1.4-6.2-2.9 2.2-2.9 3.6-5.9 4.8-5.8zM589.5 481c2.9-0.4 5.9-1.2 8.8-0.8 0.6 0 1 3.9 1.4 6-3 0.3-6.1 0.5-9.2 0.8-0.3-2-0.6-4-1-6zM685 468.3c8-7.4 10.8-2.3 15.7 6.1-6.7-2.6-10.5-4.1-15.7-6.1zM512.3 411.5c-0.2-1 1.5-2.5 2.3-3.7 1.8 1.8 4 3.4 5 5.6 0.4 0.9-1.6 3.4-3.6 7.1-1.9-4.4-3.2-6.6-3.7-9zM579.8 447.1c7.7 8.4 7.7 8.4-0.7 15.2 0.2-5.3 0.4-9.5 0.7-15.2zM568.7 818.9c1 1.2 2 2.5 3 3.7M205.9 507.9c-2.4 1.3-5.1 1.9-7.6 2.7-0.4-1.7-0.9-3.4-1.3-5.1 2.8-0.9 5.6-1.7 8.4-2.5 0.2 1.7 0.9 4.6 0.5 4.9zM337 809.4c0.7 2.1 0.2 4.7 0.2 7.1-0.7 0.1-1.5 0.2-2.2 0.3l-3.9-10.2c0.6-0.5 1.3-1 2-1.5 1.3 1.4 3.3 2.5 3.9 4.3zM657.1 813c-1.1-0.7-2.3-1.5-3.4-2.2l4.5-9.6c1 0.6 2.1 1.3 3.1 1.9-0.3 1.7-0.4 3.5-1 5-0.8 1.7-2.1 3.3-3.2 4.9zM746.3 480.3c-0.3-1.7 1.3-3.9 2.8-7.6 2.1 3.2 4 4.8 4 6.4 0 1.8-1.8 3.6-2.9 5.4-1.3-1.3-3.6-2.5-3.9-4.2zM346.8 768.5c1-2 2.7-3.6 4-5.3 0.5 0.5 1.1 1 1.6 1.4-1 3.6-2 7.3-3 10.9-1.3-0.3-2.7-0.7-4-1 0.5-2 0.5-4.2 1.4-6zM780.1 490.7c-4.9 2.4-8.2 4.1-13.7 6.8 2.9-9.8 6.9-9.4 13.7-6.8zM214.3 449.8c-0.4-1.5-0.8-3.1-1.2-4.6 2.8-0.8 5.6-1.7 8.3-2.5 0.3 1.1 0.6 2.3 0.9 3.3-2.6 1.3-5.3 2.5-8 3.8z" fill="#09A7AF" p-id="12913"></path><path d="M281.2 733h474.9v85.3H281.2z" fill="#3AB1CC" p-id="12914"></path><path d="M187.6 733h93.6v85.3h-93.6z" fill="#5FBED4" p-id="12915"></path><path d="M756.1 733h73.6v85.3h-73.6z" fill="#35A3BC" p-id="12916"></path><path d="M811.6 836.2H212.4c-17.1 0-31-13.9-31-31V370.5c0-6.6 5.4-12 12-12s12 5.4 12 12v434.6c0 3.9 3.2 7 7 7h599.2c3.9 0 7-3.2 7-7V633.3c0-6.6 5.4-12 12-12s12 5.4 12 12v171.9c0.1 17.1-13.9 31-31 31zM830.7 604.8c-6.6 0-12-5.4-12-12V370.5c0-6.6 5.4-12 12-12s12 5.4 12 12v222.2c0 6.7-5.4 12.1-12 12.1z" fill="#3D6072" p-id="12917"></path><path d="M569.9 524.2L512 497.7l-57.9 26.6c-17.5 8-37.3-4.7-37.3-23.9V189.5h190.4v310.8c0 19.2-19.9 31.9-37.3 23.9z" fill="#EAD9C3" p-id="12918"></path><path d="M567.3 189.5h46.3v310.8c0 19.2-19.9 32-37.3 23.9l-15.1-6.9c3.8-4.5 6.2-10.4 6.2-17V189.5z" fill="#D6C8B3" p-id="12919"></path><path d="M258.119793 265.088669a2.6 2.6 0 1 0 3.409109-3.926573 2.6 2.6 0 1 0-3.409109 3.926573Z" fill="#686767" p-id="12920"></path><path d="M176.87266 227.577328a2.6 2.6 0 1 0 3.409109-3.926573 2.6 2.6 0 1 0-3.409109 3.926573Z" fill="#686767" p-id="12921"></path><path d="M419.607786 226.313526a2.6 2.6 0 1 0 4.991471-1.457812 2.6 2.6 0 1 0-4.991471 1.457812Z" fill="#686767" p-id="12922"></path><path d="M424.336316 253.98494a2.6 2.6 0 1 0 0.665057-5.157296 2.6 2.6 0 1 0-0.665057 5.157296Z" fill="#686767" p-id="12923"></path><path d="M387.520618 225.667088a2.6 2.6 0 1 0 0.665057-5.157296 2.6 2.6 0 1 0-0.665057 5.157296Z" fill="#686767" p-id="12924"></path><path d="M348.206228 223.524737a2.6 2.6 0 1 0 1.458073-4.991395 2.6 2.6 0 1 0-1.458073 4.991395Z" fill="#AEAFAF" p-id="12925"></path><path d="M248.4532 226.636003a2.6 2.6 0 1 0 1.458073-4.991395 2.6 2.6 0 1 0-1.458073 4.991395Z" fill="#AEAFAF" p-id="12926"></path><path d="M280.926383 221.933217a2.6 2.6 0 1 0 5.157366-0.664517 2.6 2.6 0 1 0-5.157366 0.664517Z" fill="#AEAFAF" p-id="12927"></path><path d="M196.579997 272.521415a2.6 2.6 0 1 0 3.409109-3.926573 2.6 2.6 0 1 0-3.409109 3.926573Z" fill="#686767" p-id="12928"></path><path d="M308.546713 279.32504a2.6 2.6 0 1 0 0.665056-5.157296 2.6 2.6 0 1 0-0.665056 5.157296Z" fill="#686767" p-id="12929"></path><path d="M439.307829 271.227824a2.6 2.6 0 1 0 4.991471-1.457812 2.6 2.6 0 1 0-4.991471 1.457812Z" fill="#686767" p-id="12930"></path><path d="M399.330908 275.635749a2.6 2.6 0 1 0 5.157366-0.664517 2.6 2.6 0 1 0-5.157366 0.664517Z" fill="#AEAFAF" p-id="12931"></path><path d="M334.759686 286.296655a2.6 2.6 0 1 0 1.458073-4.991395 2.6 2.6 0 1 0-1.458073 4.991395Z" fill="#AEAFAF" p-id="12932"></path><path d="M262.351101 300.198593a2.6 2.6 0 1 0 1.458073-4.991395 2.6 2.6 0 1 0-1.458073 4.991395Z" fill="#AEAFAF" p-id="12933"></path><path d="M240.800015 333.491305a2.6 2.6 0 1 0 3.409109-3.926573 2.6 2.6 0 1 0-3.409109 3.926573Z" fill="#686767" p-id="12934"></path><path d="M200.656353 317.755575a2.6 2.6 0 1 0 3.409109-3.926573 2.6 2.6 0 1 0-3.409109 3.926573Z" fill="#686767" p-id="12935"></path><path d="M443.408706 316.503953a2.6 2.6 0 1 0 4.991471-1.457811 2.6 2.6 0 1 0-4.991471 1.457811Z" fill="#686767" p-id="12936"></path><path d="M448.105673 344.152091a2.6 2.6 0 1 0 0.665056-5.157295 2.6 2.6 0 1 0-0.665056 5.157295Z" fill="#686767" p-id="12937"></path><path d="M411.289975 315.834239a2.6 2.6 0 1 0 0.665056-5.157296 2.6 2.6 0 1 0-0.665056 5.157296Z" fill="#686767" p-id="12938"></path><path d="M371.980321 313.696179a2.6 2.6 0 1 0 1.458073-4.991395 2.6 2.6 0 1 0-1.458073 4.991395Z" fill="#AEAFAF" p-id="12939"></path><path d="M287.82465 336.525919a2.6 2.6 0 1 0 1.458073-4.991394 2.6 2.6 0 1 0-1.458073 4.991394Z" fill="#AEAFAF" p-id="12940"></path><path d="M330.330679 322.14218a2.6 2.6 0 1 0 5.157366-0.664517 2.6 2.6 0 1 0-5.157366 0.664517Z" fill="#AEAFAF" p-id="12941"></path><path d="M463.109069 361.418492a2.6 2.6 0 1 0 4.991471-1.457812 2.6 2.6 0 1 0-4.991471 1.457812Z" fill="#686767" p-id="12942"></path><path d="M423.030781 365.845766a2.6 2.6 0 1 0 5.157366-0.664517 2.6 2.6 0 1 0-5.157366 0.664517Z" fill="#AEAFAF" p-id="12943"></path><path d="M668.605181 326.402631a2.6 2.6 0 1 0 3.409109-3.926573 2.6 2.6 0 1 0-3.409109 3.926573Z" fill="#686767" p-id="12944"></path><path d="M628.394171 310.740492a2.6 2.6 0 1 0 3.409109-3.926573 2.6 2.6 0 1 0-3.409109 3.926573Z" fill="#686767" p-id="12945"></path><path d="M795.209264 224.691858a2.6 2.6 0 1 0 4.991471-1.457812 2.6 2.6 0 1 0-4.991471 1.457812Z" fill="#686767" p-id="12946"></path><path d="M780.911193 343.427343a2.6 2.6 0 1 0 4.991471-1.457812 2.6 2.6 0 1 0-4.991471 1.457812Z" fill="#686767" p-id="12947"></path><path d="M839.069079 308.724475a2.6 2.6 0 1 0 0.665056-5.157295 2.6 2.6 0 1 0-0.665056 5.157295Z" fill="#686767" p-id="12948"></path><path d="M799.774564 306.5885a2.6 2.6 0 1 0 1.458073-4.991395 2.6 2.6 0 1 0-1.458073 4.991395Z" fill="#AEAFAF" p-id="12949"></path><path d="M694.566891 290.164265a2.6 2.6 0 1 0 1.458073-4.991395 2.6 2.6 0 1 0-1.458073 4.991395Z" fill="#AEAFAF" p-id="12950"></path><path d="M732.431058 305.04408a2.6 2.6 0 1 0 5.157365-0.664516 2.6 2.6 0 1 0-5.157365 0.664516Z" fill="#AEAFAF" p-id="12951"></path><path d="M648.166313 355.609413a2.6 2.6 0 1 0 3.409109-3.926573 2.6 2.6 0 1 0-3.409109 3.926573Z" fill="#686767" p-id="12952"></path><path d="M719.847504 354.687796a2.6 2.6 0 1 0 1.458073-4.991395 2.6 2.6 0 1 0-1.458073 4.991395Z" fill="#AEAFAF" p-id="12953"></path><path d="M637.371336 260.733042a2.6 2.6 0 1 0 0.665057-5.157295 2.6 2.6 0 1 0-0.665057 5.157295Z" fill="#686767" p-id="12954"></path><path d="M599.354167 265.423518a2.6 2.6 0 1 0 0.665057-5.157296 2.6 2.6 0 1 0-0.665057 5.157296Z" fill="#686767" p-id="12955"></path><path d="M517.016579 258.510359a2.6 2.6 0 1 0 5.166203-0.591903 2.6 2.6 0 1 0-5.166203 0.591903Z" fill="#686767" p-id="12956"></path><path d="M697.079592 257.637208a2.6 2.6 0 1 0 1.458074-4.991395 2.6 2.6 0 1 0-1.458074 4.991395Z" fill="#AEAFAF" p-id="12957"></path><path d="M741.736944 234.801709a2.6 2.6 0 1 0 1.458073-4.991394 2.6 2.6 0 1 0-1.458073 4.991394Z" fill="#686767" p-id="12958"></path><path d="M601.402408 229.631642a2.6 2.6 0 1 0 1.458073-4.991395 2.6 2.6 0 1 0-1.458073 4.991395Z" fill="#AEAFAF" p-id="12959"></path><path d="M496.525711 226.032746a2.6 2.6 0 1 0 5.157366-0.664516 2.6 2.6 0 1 0-5.157366 0.664516Z" fill="#AEAFAF" p-id="12960"></path><path d="M633.728363 224.942072a2.6 2.6 0 1 0 5.157365-0.664517 2.6 2.6 0 1 0-5.157365 0.664517Z" fill="#AEAFAF" p-id="12961"></path><path d="M549.529729 275.570455a2.6 2.6 0 1 0 3.409109-3.926573 2.6 2.6 0 1 0-3.409109 3.926573Z" fill="#686767" p-id="12962"></path><path d="M781.378148 267.959281a2.6 2.6 0 1 0 1.458073-4.991395 2.6 2.6 0 1 0-1.458073 4.991395Z" fill="#AEAFAF" p-id="12963"></path><path d="M838.661609 232.183219a2.6 2.6 0 1 0 1.458073-4.991395 2.6 2.6 0 1 0-1.458073 4.991395Z" fill="#AEAFAF" p-id="12964"></path><path d="M621.127349 274.59091a2.6 2.6 0 1 0 1.458073-4.991394 2.6 2.6 0 1 0-1.458073 4.991394Z" fill="#AEAFAF" p-id="12965"></path><path d="M459.2 189.5h-46.3v310.8c0 19.2 19.9 32 37.3 23.9l15.1-6.9c-3.8-4.5-6.2-10.4-6.2-17" fill="#EDE6DD" p-id="12966"></path><path d="M614.7 211.8h-202c-6.6 0-12-5.4-12-12s5.4-12 12-12h201.9c6.6 0 12 5.4 12 12s-5.3 12-11.9 12z" fill="#3D6072" p-id="12967"></path><path d="M581.7 205.4m-2.5 0a2.5 2.5 0 1 0 5 0 2.5 2.5 0 1 0-5 0Z" fill="#686767" p-id="12968"></path><path d="M581.851121 240.246103a2.5 2.5 0 1 0 3.277989-3.775551 2.5 2.5 0 1 0-3.277989 3.775551Z" fill="#686767" p-id="12969"></path><path d="M577.042351 350.272356a2.5 2.5 0 1 0 0.639477-4.958938 2.5 2.5 0 1 0-0.639477 4.958938Z" fill="#686767" p-id="12970"></path><path d="M553.412789 385.294501a2.5 2.5 0 1 0 4.799492-1.401742 2.5 2.5 0 1 0-4.799492 1.401742Z" fill="#686767" p-id="12971"></path><path d="M581.111788 480.0935a2.5 2.5 0 1 0 4.799491-1.401742 2.5 2.5 0 1 0-4.799491 1.401742Z" fill="#686767" p-id="12972"></path><path d="M576.621922 522.400346a2.5 2.5 0 1 0 4.799491-1.401742 2.5 2.5 0 1 0-4.799491 1.401742Z" fill="#686767" p-id="12973"></path><path d="M557.747207 484.471603a2.5 2.5 0 1 0 0.639478-4.958939 2.5 2.5 0 1 0-0.639478 4.958939Z" fill="#686767" p-id="12974"></path><path d="M549.31258 308.386223a2.5 2.5 0 1 0 0.639478-4.958938 2.5 2.5 0 1 0-0.639478 4.958938Z" fill="#686767" p-id="12975"></path><path d="M551.819129 226.903019a2.5 2.5 0 1 0 4.967503-0.569138 2.5 2.5 0 1 0-4.967503 0.569138Z" fill="#AEAFAF" p-id="12976"></path><path d="M567.605355 511.188561a2.5 2.5 0 1 0 3.775494-3.278055 2.5 2.5 0 1 0-3.775494 3.278055Z" fill="#AEAFAF" p-id="12977"></path><path d="M576.42886 440.223819a2.5 2.5 0 1 0 4.959005-0.638959 2.5 2.5 0 1 0-4.959005 0.638959Z" fill="#AEAFAF" p-id="12978"></path><path d="M585.029961 492.032987a2.5 2.5 0 1 0 4.959006-0.638958 2.5 2.5 0 1 0-4.959006 0.638958Z" fill="#AEAFAF" p-id="12979"></path><path d="M569.669251 376.504022a2.5 2.5 0 1 0 1.401993-4.799418 2.5 2.5 0 1 0-1.401993 4.799418Z" fill="#AEAFAF" p-id="12980"></path><path d="M587.420116 409.407871a2.5 2.5 0 1 0 1.401993-4.799418 2.5 2.5 0 1 0-1.401993 4.799418Z" fill="#AEAFAF" p-id="12981"></path><path d="M584.359232 310.674049a2.5 2.5 0 1 0 1.401993-4.799418 2.5 2.5 0 1 0-1.401993 4.799418Z" fill="#AEAFAF" p-id="12982"></path><path d="M579.81076 268.401391a2.5 2.5 0 1 0 1.401993-4.799418 2.5 2.5 0 1 0-1.401993 4.799418Z" fill="#AEAFAF" p-id="12983"></path><path d="M521.918417 299.633653a2.5 2.5 0 1 0 3.27799-3.775551 2.5 2.5 0 1 0-3.27799 3.775551Z" fill="#686767" p-id="12984"></path><path d="M532.612152 369.863737a2.5 2.5 0 1 0 0.639478-4.958938 2.5 2.5 0 1 0-0.639478 4.958938Z" fill="#686767" p-id="12985"></path><path d="M536.721516 499.673512a2.5 2.5 0 1 0 4.799492-1.401742 2.5 2.5 0 1 0-4.799492 1.401742Z" fill="#686767" p-id="12986"></path><path d="M504.848557 454.519414a2.5 2.5 0 1 0 0.639478-4.958938 2.5 2.5 0 1 0-0.639478 4.958938Z" fill="#686767" p-id="12987"></path><path d="M513.231492 503.952007a2.5 2.5 0 1 0 0.639478-4.958938 2.5 2.5 0 1 0-0.639478 4.958938Z" fill="#686767" p-id="12988"></path><path d="M504.795993 327.865636a2.5 2.5 0 1 0 0.639477-4.958938 2.5 2.5 0 1 0-0.639477 4.958938Z" fill="#686767" p-id="12989"></path><path d="M511.114362 210.999522a2.5 2.5 0 1 0 4.967502-0.569137 2.5 2.5 0 1 0-4.967502 0.569137Z" fill="#686767" p-id="12990"></path><path d="M531.921302 459.728025a2.5 2.5 0 1 0 4.959005-0.638959 2.5 2.5 0 1 0-4.959005 0.638959Z" fill="#AEAFAF" p-id="12991"></path><path d="M525.232114 396.101875a2.5 2.5 0 1 0 1.401993-4.799418 2.5 2.5 0 1 0-1.401993 4.799418Z" fill="#AEAFAF" p-id="12992"></path><path d="M542.982979 429.005725a2.5 2.5 0 1 0 1.401993-4.799418 2.5 2.5 0 1 0-1.401993 4.799418Z" fill="#AEAFAF" p-id="12993"></path><path d="M539.825147 330.244582a2.5 2.5 0 1 0 1.401993-4.799418 2.5 2.5 0 1 0-1.401993 4.799418Z" fill="#AEAFAF" p-id="12994"></path><path d="M460.960607 271.398903a2.5 2.5 0 1 0 3.27799-3.775551 2.5 2.5 0 1 0-3.27799 3.775551Z" fill="#686767" p-id="12995"></path><path d="M476.434668 231.618031a2.5 2.5 0 1 0 3.27799-3.775551 2.5 2.5 0 1 0-3.27799 3.775551Z" fill="#686767" p-id="12996"></path><path d="M471.218356 513.793418a2.5 2.5 0 1 0 4.799491-1.401742 2.5 2.5 0 1 0-4.799491 1.401742Z" fill="#686767" p-id="12997"></path><path d="M452.316205 475.844346a2.5 2.5 0 1 0 0.639478-4.958939 2.5 2.5 0 1 0-0.639478 4.958939Z" fill="#686767" p-id="12998"></path><path d="M443.879714 299.758847a2.5 2.5 0 1 0 0.639477-4.958939 2.5 2.5 0 1 0-0.639477 4.958939Z" fill="#686767" p-id="12999"></path><path d="M446.417575 218.295799a2.5 2.5 0 1 0 4.967503-0.569138 2.5 2.5 0 1 0-4.967503 0.569138Z" fill="#686767" p-id="13000"></path><path d="M462.199232 502.572171a2.5 2.5 0 1 0 3.775494-3.278056 2.5 2.5 0 1 0-3.775494 3.278056Z" fill="#AEAFAF" p-id="13001"></path><path d="M470.927691 431.631593a2.5 2.5 0 1 0 4.959005-0.638959 2.5 2.5 0 1 0-4.959005 0.638959Z" fill="#AEAFAF" p-id="13002"></path><path d="M479.627853 483.428118a2.5 2.5 0 1 0 4.959005-0.638959 2.5 2.5 0 1 0-4.959005 0.638959Z" fill="#AEAFAF" p-id="13003"></path><path d="M481.99157 400.779793a2.5 2.5 0 1 0 1.401993-4.799418 2.5 2.5 0 1 0-1.401993 4.799418Z" fill="#AEAFAF" p-id="13004"></path><path d="M478.928046 302.04645a2.5 2.5 0 1 0 1.401994-4.799418 2.5 2.5 0 1 0-1.401994 4.799418Z" fill="#AEAFAF" p-id="13005"></path><path d="M474.380294 259.774752a2.5 2.5 0 1 0 1.401993-4.799418 2.5 2.5 0 1 0-1.401993 4.799418Z" fill="#AEAFAF" p-id="13006"></path><path d="M431.976026 251.22471a2.5 2.5 0 1 0 3.27799-3.775551 2.5 2.5 0 1 0-3.27799 3.775551Z" fill="#686767" p-id="13007"></path><path d="M427.180158 361.237352a2.5 2.5 0 1 0 0.639478-4.958938 2.5 2.5 0 1 0-0.639478 4.958938Z" fill="#686767" p-id="13008"></path><path d="M431.222161 491.096021a2.5 2.5 0 1 0 4.799492-1.401742 2.5 2.5 0 1 0-4.799492 1.401742Z" fill="#686767" p-id="13009"></path><path d="M426.519057 451.123036a2.5 2.5 0 1 0 4.959006-0.638958 2.5 2.5 0 1 0-4.959006 0.638958Z" fill="#AEAFAF" p-id="13010"></path><path d="M437.553473 420.378366a2.5 2.5 0 1 0 1.401993-4.799418 2.5 2.5 0 1 0-1.401993 4.799418Z" fill="#AEAFAF" p-id="13011"></path><path d="M434.393961 321.616983a2.5 2.5 0 1 0 1.401993-4.799418 2.5 2.5 0 1 0-1.401993 4.799418Z" fill="#AEAFAF" p-id="13012"></path><path d="M432.4 535.1c-5.7 0-11.3-1.6-16.3-4.9-8.4-5.5-13.4-14.8-13.4-24.8V217.5c0-16.4 13.3-29.7 29.7-29.7h155.1c16.4 0 29.7 13.3 29.7 29.7v287.9c0 10-5 19.3-13.4 24.8s-18.9 6.4-28.1 2.4l-63.5-27.5c-1.4-0.6-3.1-0.6-4.5 0l-63.5 27.5c-3.8 1.7-7.8 2.5-11.8 2.5z m77.6-54.4c4 0 8.1 0.8 11.8 2.4l63.5 27.5c2.4 1.1 4.4 0.2 5.4-0.5 1-0.6 2.6-2.1 2.6-4.7V217.5c0-3.1-2.5-5.7-5.7-5.7H432.4c-3.1 0-5.7 2.5-5.7 5.7v287.9c0 2.7 1.6 4.1 2.6 4.7 1 0.6 2.9 1.5 5.4 0.5l63.5-27.5c3.7-1.6 7.7-2.4 11.8-2.4z" fill="#3D6072" p-id="13013"></path><path d="M236.824 771.53l9.758-9.759 9.758 9.758-9.758 9.758zM325.904 771.482l9.758-9.758 9.758 9.758-9.758 9.758zM503.921 771.532l9.758-9.758 9.758 9.758-9.758 9.758zM414.912 771.508l9.758-9.758 9.758 9.758-9.758 9.758zM771.019 771.532l9.758-9.758 9.758 9.758-9.758 9.758zM593.001 771.482l9.758-9.758 9.758 9.758-9.758 9.758zM682.01 771.508l9.758-9.758 9.758 9.758-9.758 9.758z" fill="#E8E8E8" p-id="13014"></path></svg>