<svg xmlns="http://www.w3.org/2000/svg"  viewBox="0 0 48 48" width="512px" height="512px"><path fill="#37474f" d="M5,28h38v14H5V28z"/><path fill="#00b8d4" d="M14 40L7 40 7 33 9 33 9 38 14 38zM41 40L34 40 34 38 39 38 39 33 41 33z"/><path fill="#90a4ae" d="M41 13L39 13 39 8 34 8 34 6 41 6zM9 13L7 13 7 6 14 6 14 8 9 8z"/><path fill="#00e5ff" d="M32.1 32.3c.2.1.3.1.5.1.5 0 .9-.3 1.2-.8.3-.6 0-1.4-.7-1.6-.3-.1-.5-.2-.7-.3h-4.6C28.9 30.6 30.3 31.5 32.1 32.3zM32.7 33.1C32.7 33.1 32.7 33.1 32.7 33.1c-.1 0-.2 0-.3 0-2.7 0-5.1-1.2-6.9-3.5h-3.1c2.3 3.8 5.9 6 10 6 .1 0 .2 0 .3 0 .7 0 1.2-.6 1.2-1.3C34 33.7 33.4 33.1 32.7 33.1zM27.4 35.6c-2.9-1.3-4.4-2.4-6.2-4.9-.2-.3-.4-.7-.6-1h-2.8c.4.9.9 1.8 1.4 2.5 2 2.8 3.9 4.3 7.2 5.7.2.1.3.1.5.1.5 0 .9-.3 1.2-.8C28.4 36.6 28.1 35.9 27.4 35.6z"/><path fill="#ffb74d" d="M13.3 22.9C13.2 22.9 13.2 22.9 13.3 22.9c-.8-.1-1.3-.7-1.3-1.4 0-.3.5-6.4 5.3-10C20.8 9 24.5 9 26.3 9l.3 0c.7 0 1.3.6 1.3 1.3 0 .7-.6 1.3-1.3 1.3h-.3c-1.6 0-4.6 0-7.4 2.1-3.9 2.9-4.3 8.1-4.3 8.1C14.5 22.4 13.9 22.9 13.3 22.9zM26.8 23c0-.7-.5-1.3-1.2-1.3-.7 0-1.3.5-1.3 1.2 0 .2 0 2.5 2.1 5.1h3.7C26.9 25.7 26.8 23.2 26.8 23z"/><path fill="#ffb74d" d="M34.3,26.4c-1.7-0.9-2.6-2.7-3.5-4.4c-1.2-2.4-2.8-5.6-7-3.8c-1.3,0.6-2.3,1.6-2.8,3 c-0.9,2.3-0.3,5,0.6,6.7c0,0.1,0.1,0.1,0.1,0.2h2.9c-0.2-0.4-0.5-0.8-0.7-1.3c-0.8-1.6-1-3.5-0.5-4.8c0.3-0.8,0.8-1.3,1.5-1.6 c1.8-0.8,2.3-0.2,3.7,2.7c0.8,1.7,1.8,3.6,3.7,5h2.7C35.2,27.4,34.9,26.7,34.3,26.4z"/><path fill="#ffb74d" d="M19.9,28c-0.8-2-1.2-4.4-0.8-6.5c0.4-1.9,1.5-3.3,3.2-4.3c1.9-1.1,3.6-1.3,5.2-0.7 c2.9,1.1,4.9,4.8,6.1,7.7c0.3,0.6,1,1,1.6,0.7c0.6-0.3,1-1,0.7-1.6c-1.3-3.4-3.7-7.7-7.5-9.1c-2.3-0.8-4.7-0.5-7.2,0.9 c-2.3,1.3-3.9,3.3-4.5,5.9c-0.5,2.3-0.2,4.9,0.5,7.1H19.9z"/><path fill="#18ffff" d="M5,28h38v2H5V28z"/></svg>