<svg t="1686637305224" class="icon" viewBox="0 0 1024 1024" version="1.1" xmlns="http://www.w3.org/2000/svg" p-id="19465" width="200" height="200"><path d="M477.4 988.4c22.4 7.7 46.8 7.7 69.2 0 152.8-52.4 208-95.2 208-95.2 158.8-108.3 160.2-250.5 160.2-250.5V193.9c0-22-17.9-40.9-39.9-41.7-112.7-4-278.8-86.8-339.6-119.2-14.6-7.8-32.1-7.8-46.7 0C427.8 65.3 261.8 148.2 149 152.2c-22 0.8-39.9 19.7-39.9 41.7v448.8s1.4 142.2 160.2 250.5c0.1 0 55.3 42.8 208.1 95.2z" fill="#2196F3" p-id="19466"></path><path d="M483.1 907.1c18.7 6.4 39.1 6.4 57.8 0 127.6-43.7 173.7-79.5 173.7-79.5 132.6-90.4 133.8-209.2 133.8-209.2V248.6c0-18.4-15-34.1-33.3-34.8-94.1-3.3-232.8-72.5-283.5-99.5-12.2-6.5-26.8-6.5-39 0-50.7 27-189.4 96.2-283.5 99.5-18.3 0.6-33.3 16.4-33.3 34.8v369.8s1.2 118.8 133.8 209.2c-0.2 0 45.9 35.8 173.5 79.5z" fill="#64B5F6" p-id="19467"></path><path d="M512 109.4c-6.7 0-13.4 1.6-19.5 4.9-50.7 27-189.4 96.2-283.5 99.5-18.3 0.6-33.3 16.4-33.3 34.8v369.8s1.2 118.8 133.8 209.2c0 0 46.1 35.8 173.7 79.5 9.3 3.2 19.1 4.8 28.9 4.8V109.4z" fill="#90CAF9" p-id="19468"></path><path d="M848.4 563.5v54.9s-1.2 118.8-133.8 209.2c0 0-22.1 17.2-78 42.2l47.4 63.4c55.2-27.4 104.2-59 140.5-99.1 59.7-67.2 84.1-126.8 89.8-182.5l-65.9-88.1z" fill="#1E88E5" p-id="19469"></path><path d="M848.4 618.4v-54.9L699.1 363.9 512 538v165.1l124.6 166.6c55.9-25.1 78-42.2 78-42.2 132.6-90.3 133.8-209.1 133.8-209.1z" fill="#42A5F5" p-id="19470"></path><path d="M487.4 560.9l-137.9-75.1L512 703.1V538z" fill="#64B5F6" p-id="19471"></path><path d="M482.4 605.5c-7.6 0-15.3-2.9-21.1-8.7L356 491.4c-11.7-11.7-11.7-30.6 0-42.2 11.7-11.7 30.6-11.7 42.2 0l84.2 84.2 170.2-170.2c11.7-11.7 30.6-11.7 42.2 0 11.7 11.7 11.7 30.6 0 42.2L503.5 596.7c-5.8 5.9-13.4 8.8-21.1 8.8z" fill="#FFFFFF" p-id="19472"></path></svg>