<?xml version="1.0" standalone="no"?><!DOCTYPE svg PUBLIC "-//W3C//DTD SVG 1.1//EN" "http://www.w3.org/Graphics/SVG/1.1/DTD/svg11.dtd"><svg t="1686734446936" class="icon" viewBox="0 0 1024 1024" version="1.1" xmlns="http://www.w3.org/2000/svg" p-id="85703" xmlns:xlink="http://www.w3.org/1999/xlink" width="200" height="200"><path d="M297.813333 292.864a453.866667 453.866667 0 0 0 75.776 76.032 525.632 525.632 0 0 0 55.936 38.848 64 64 0 0 0 114.944 53.610667l4.992 1.770666c53.333333 20.096 104.874667 37.418667 154.645334 51.946667L704 511.978667a64 64 0 0 0 34.069333 56.576 472.405333 472.405333 0 0 1-42.709333 86.826666l-5.930667 8.874667a53.333333 53.333333 0 0 0-60.714666 81.536A851.989333 851.989333 0 0 1 547.754667 832H245.333333c-111.936 0-202.666667-90.752-202.666666-202.666667 0-111.936 90.730667-202.666667 202.666666-202.666666h10.666667c0-46.613333 13.610667-90.069333 37.056-126.592l4.778667-7.189334z m524.928 252.266667c54.698667 11.605333 106.986667 19.413333 156.821334 23.381333 1.173333 9.429333 1.770667 19.050667 1.770666 28.8 0 129.6-105.066667 234.666667-234.666666 234.666667L593.898667 832a920.490667 920.490667 0 0 0 60.458666-67.029333 53.333333 53.333333 0 0 0 60.8-81.685334l7.146667-10.602666c20.416-33.002667 35.904-65.237333 47.082667-96.746667l-1.386667 0.042667c22.72 0 42.666667-11.84 54.037333-29.696l0.704-1.152z m149.418667-13.013334l1.024 3.733334a1202.346667 1202.346667 0 0 1-141.226667-21.504L832 512a64 64 0 0 0-39.530667-59.178667c0.64-29.866667-2.368-58.944-8.362666-87.189333a234.922667 234.922667 0 0 1 188.053333 166.464zM490.666667 192c107.413333 0 197.973333 72.170667 225.834666 170.666667H746.666667l3.968 0.042666a352.64 352.64 0 0 1 9.92 79.424v6.272a64.042667 64.042667 0 0 0-49.92 35.2 2097.344 2097.344 0 0 1-150.314667-50.581333l-5.845333-2.048a64 64 0 0 0-71.786667-67.84l-10.368-26.410667-29.781333 11.648 10.432 26.56c-2.346667 1.706667-4.544 3.562667-6.613334 5.546667a486.4 486.4 0 0 1-52.821333-36.608 421.418667 421.418667 0 0 1-71.210667-71.616l-3.797333-5.077333a234.986667 234.986667 0 0 1 90.666667-60.650667c3.328 26.730667 7.466667 51.114667 12.373333 73.173333l3.498667 15.616 31.232-6.954666-3.477334-15.616a758.933333 758.933333 0 0 1-12.032-71.189334l-0.469333-4.138666C456.533333 193.877333 473.386667 192 490.666667 192z" fill="#FF6A00" p-id="85704"></path></svg>