<?xml version="1.0" standalone="no"?><!DOCTYPE svg PUBLIC "-//W3C//DTD SVG 1.1//EN" "http://www.w3.org/Graphics/SVG/1.1/DTD/svg11.dtd"><svg t="1661847584132" class="icon" viewBox="0 0 1024 1024" version="1.1" xmlns="http://www.w3.org/2000/svg" p-id="3690" xmlns:xlink="http://www.w3.org/1999/xlink" width="16" height="16"><path d="M904 0H120C54 0 0 54 0 120v784c0 66 54 120 120 120h784c66 0 120-54 120-120V120c0-66-54-120-120-120zM787.1 371.2L460.4 697.9l-0.1 0.1c-12.4 12.4-32.7 12.4-45.1 0l-0.1-0.1-178.2-178.2c-12.4-12.4-12.4-32.7 0-45.1l0.1-0.1c12.4-12.4 32.7-12.4 45.1 0l155.6 155.6L741.9 326c12.4-12.4 32.7-12.4 45.1 0l0.1 0.1c12.4 12.4 12.4 32.7 0 45.1z" fill="#25b864" p-id="3691" data-spm-anchor-id="a313x.7781069.0.i3" class=""></path></svg>