<svg t="1660532935888" class="icon" viewBox="0 0 1024 1024" version="1.1" xmlns="http://www.w3.org/2000/svg" p-id="7067" width="200" height="200"><path d="M574.784 825.728l-14.16 50.944a366.144 366.144 0 0 0 174.72-72.496l-46.048-26.016a317.728 317.728 0 0 1-114.512 47.568zM778.176 689.312l26.016 46.032a366.08 366.08 0 0 0 72.496-174.72l-50.944 14.16a318.48 318.48 0 0 1-47.568 114.528zM334.688 778.176l-46.048 26.016a366.144 366.144 0 0 0 174.72 72.496l-14.16-50.944a318.528 318.528 0 0 1-114.512-47.568zM198.272 449.216a317.92 317.92 0 0 1 47.568-114.528l-26.016-46.032a366.08 366.08 0 0 0-72.496 174.72l50.944-14.16zM245.824 689.312a318.48 318.48 0 0 1-47.568-114.528l-50.944-14.144a366.144 366.144 0 0 0 72.496 174.72l26.016-46.048zM334.688 245.824a318.208 318.208 0 0 1 114.528-47.568l14.16-50.944a366.144 366.144 0 0 0-174.72 72.496l46.032 26.016zM574.784 198.272a318.208 318.208 0 0 1 114.528 47.568l46.048-26.016a366.144 366.144 0 0 0-174.72-72.496l14.144 50.944zM876.688 463.36a366.144 366.144 0 0 0-72.496-174.72l-26.016 46.032a318.48 318.48 0 0 1 47.568 114.528l50.944 14.16zM776.192 233.488l-14.704 8.32-44.256 25.008a322.72 322.72 0 0 1 39.952 39.952l25.008-44.256 8.32-14.704 8.128-14.384 10.496-18.56-18.56 10.496-14.384 8.128zM790.512 776.192l-8.32-14.704-25.008-44.256a322.72 322.72 0 0 1-39.952 39.952l44.256 25.008 14.704 8.32 14.384 8.128 18.56 10.496-10.496-18.56-8.128-14.384zM266.8 717.232l-25.008 44.256-8.32 14.704-8.128 14.384-10.496 18.56 18.56-10.496 14.384-8.128 14.704-8.32 44.256-25.008a322.72 322.72 0 0 1-39.952-39.952zM247.808 233.488l-14.384-8.128-18.56-10.496 10.496 18.56 8.128 14.384 8.32 14.704 25.008 44.256a322.72 322.72 0 0 1 39.952-39.952l-44.256-25.008-14.704-8.32zM263.84 657.44c3.104 5.264 6.112 10.592 9.536 15.648 3.28 4.832 6.912 9.376 10.464 14a290.288 290.288 0 0 0 53.056 53.072c4.624 3.552 9.168 7.2 14 10.48 5.056 3.424 10.368 6.432 15.648 9.536a285.728 285.728 0 0 0 72.832 30.208l-15.36-55.296c-2.56-1.008-5.136-1.968-7.664-3.072-5.968-2.608-11.84-5.392-17.552-8.464a245.088 245.088 0 0 1-15.792-9.456 241.424 241.424 0 0 1-73.104-73.12 238 238 0 0 1-9.456-15.792 236.192 236.192 0 0 1-8.464-17.552c-1.104-2.512-2.064-5.088-3.072-7.664l-55.296-15.36a286.912 286.912 0 0 0 30.224 72.832zM760.16 366.56c-3.104-5.264-6.112-10.592-9.536-15.648-3.28-4.832-6.912-9.376-10.464-14a290.288 290.288 0 0 0-53.056-53.072c-4.624-3.552-9.168-7.2-14-10.48-5.056-3.424-10.368-6.432-15.648-9.536a285.728 285.728 0 0 0-72.832-30.208l15.36 55.28c2.56 1.008 5.136 1.968 7.664 3.072 5.968 2.608 11.84 5.392 17.552 8.464 5.424 2.912 10.624 6.16 15.792 9.456a241.424 241.424 0 0 1 73.104 73.12c3.312 5.168 6.544 10.368 9.456 15.792 3.072 5.712 5.856 11.568 8.464 17.552 1.104 2.512 2.064 5.104 3.072 7.664l55.28 15.36a286.432 286.432 0 0 0-30.208-72.816zM673.088 750.624c4.832-3.28 9.376-6.928 14-10.48a289.28 289.28 0 0 0 53.056-53.072c3.552-4.624 7.2-9.168 10.464-14 3.424-5.056 6.432-10.368 9.536-15.648a285.488 285.488 0 0 0 30.208-72.832l-55.296 15.36c-1.008 2.56-1.968 5.136-3.072 7.664-2.608 5.968-5.392 11.84-8.464 17.552-2.912 5.424-6.16 10.624-9.456 15.792a241.776 241.776 0 0 1-73.104 73.12c-5.168 3.312-10.368 6.544-15.792 9.456-5.712 3.072-11.584 5.856-17.552 8.464-2.512 1.104-5.088 2.064-7.664 3.072l-15.36 55.296a285.952 285.952 0 0 0 72.832-30.208c5.28-3.104 10.608-6.128 15.664-9.536zM300.464 398.832c2.912-5.424 6.16-10.624 9.456-15.792a241.776 241.776 0 0 1 73.104-73.12c5.168-3.312 10.368-6.544 15.792-9.456 5.712-3.072 11.584-5.856 17.552-8.464 2.512-1.104 5.104-2.064 7.664-3.072l15.36-55.28a285.952 285.952 0 0 0-72.832 30.208c-5.264 3.104-10.592 6.112-15.648 9.536-4.832 3.28-9.376 6.928-14 10.48a289.28 289.28 0 0 0-53.056 53.072c-3.552 4.624-7.2 9.168-10.464 14-3.424 5.056-6.432 10.368-9.536 15.648a285.488 285.488 0 0 0-30.208 72.832l55.28-15.36c1.008-2.56 1.968-5.136 3.072-7.664 2.608-6 5.392-11.872 8.464-17.568zM544.8 209.824l-4.56-16.4-13.632-49.056-4.48-16.112-4.48-16.112L512 91.776l-5.664 20.368-4.48 16.112-4.48 16.112-13.632 49.056-4.56 16.4-4.688 16.896-14.176 51.024C476.992 274.08 494.256 272 512 272s35.008 2.08 51.664 5.744l-14.176-51.024-4.688-16.896zM895.744 501.872l-16.112-4.48-49.056-13.632-16.4-4.56-16.896-4.688-51.024-14.176C749.92 477.008 752 494.256 752 512s-2.08 34.992-5.744 51.664l51.024-14.176 16.896-4.688 16.4-4.56 49.056-13.632 16.112-4.48 16.112-4.48L932.224 512l-20.368-5.664-16.112-4.464zM512 752c-17.744 0-35.008-2.08-51.664-5.744l14.176 51.024 4.688 16.896 4.56 16.4 13.632 49.056 4.48 16.112 4.48 16.112 5.648 20.368 5.664-20.368 4.48-16.112 4.48-16.112 13.632-49.056 4.56-16.4 4.688-16.896 14.176-51.024A240.384 240.384 0 0 1 512 752zM209.824 544.8l16.896 4.688 51.024 14.176C274.08 546.992 272 529.744 272 512s2.08-34.992 5.744-51.664l-51.024 14.176-16.896 4.688-16.4 4.56-49.056 13.632-16.112 4.48-16.112 4.48L91.776 512l20.368 5.664 16.112 4.48 16.112 4.48 49.056 13.632 16.4 4.544zM512 720c20.528 0 40.32-3.104 59.056-8.672a208.16 208.16 0 0 0 20.272-7.136c0.176-0.08 0.368-0.128 0.544-0.192 6.608-2.752 13.056-5.808 19.28-9.2a209.392 209.392 0 0 0 83.648-83.648c3.392-6.24 6.448-12.688 9.2-19.28 0.08-0.176 0.128-0.368 0.192-0.544 2.736-6.592 5.088-13.36 7.136-20.272C716.896 552.32 720 532.528 720 512s-3.104-40.32-8.672-59.072a204 204 0 0 0-7.136-20.272c-0.08-0.176-0.128-0.368-0.192-0.544a204.88 204.88 0 0 0-9.2-19.28 209.488 209.488 0 0 0-83.648-83.648c-6.24-3.392-12.688-6.448-19.28-9.2-0.176-0.08-0.368-0.128-0.544-0.192a204 204 0 0 0-20.272-7.136C552.32 307.104 532.528 304 512 304s-40.32 3.104-59.056 8.672a208.16 208.16 0 0 0-20.272 7.136c-0.176 0.08-0.368 0.128-0.544 0.192-6.608 2.752-13.056 5.808-19.28 9.2a209.392 209.392 0 0 0-83.648 83.648c-3.392 6.24-6.448 12.688-9.2 19.28-0.08 0.176-0.128 0.368-0.192 0.544a204 204 0 0 0-7.136 20.272C307.104 471.68 304 491.472 304 512s3.104 40.32 8.672 59.072c2.048 6.912 4.4 13.68 7.136 20.272 0.08 0.176 0.128 0.368 0.192 0.544 2.752 6.608 5.808 13.056 9.2 19.28a209.488 209.488 0 0 0 83.648 83.648c6.24 3.392 12.688 6.448 19.28 9.2 0.176 0.08 0.368 0.128 0.544 0.192 6.592 2.736 13.36 5.088 20.272 7.136C471.68 716.896 491.472 720 512 720zM352 512c0-88.224 71.776-160 160-160s160 71.776 160 160-71.776 160-160 160-160-71.776-160-160z" fill="#b2e8ff" p-id="7068"></path><path d="M640 512c0-70.576-57.424-128-128-128s-128 57.424-128 128 57.424 128 128 128 128-57.424 128-128z m-208 0c0-44.112 35.888-80 80-80s80 35.888 80 80-35.888 80-80 80-80-35.888-80-80z" fill="#b2e8ff" p-id="7069"></path><path d="M512 512m-48 0a48 48 0 1 0 96 0 48 48 0 1 0-96 0Z" fill="#b2e8ff" p-id="7070"></path></svg>