<?xml version="1.0" standalone="no"?><!DOCTYPE svg PUBLIC "-//W3C//DTD SVG 1.1//EN" "http://www.w3.org/Graphics/SVG/1.1/DTD/svg11.dtd"><svg t="1663142933330" class="icon" viewBox="0 0 1024 1024" version="1.1" xmlns="http://www.w3.org/2000/svg" p-id="1115" xmlns:xlink="http://www.w3.org/1999/xlink" width="40" height="40"><path d="M448 405.333333c3.072 0.085333 5.76 2.133333 6.656 5.077334l6.698667 20.010666a6.826667 6.826667 0 0 1-5.76 8.917334c-27.136 2.986667-50.730667 19.925333-62.293334 44.672h3.626667c15.36 0 30.72 1.664 45.738667 4.906666a40.789333 40.789333 0 0 1 31.744 35.285334l0.256 4.693333c0.042667 18.176-1.322667 36.266667-4.138667 54.186667a41.344 41.344 0 0 1-38.528 34.773333c-7.978667 0.810667-16 0.810667-23.978667 0.810667H386.133333a41.6 41.6 0 0 1-38.528-34.133334A358.528 358.528 0 0 1 341.333333 517.845333 111.744 111.744 0 0 1 448 405.333333z m213.333333 0c3.072 0.085333 5.76 2.133333 6.656 5.077334l6.698667 20.010666a6.826667 6.826667 0 0 1-5.76 8.917334c-27.136 2.986667-50.730667 19.925333-62.293333 44.672h3.626666c15.36 0 30.72 1.664 45.738667 4.906666a40.789333 40.789333 0 0 1 31.744 35.285334l0.256 4.693333c0.042667 18.176-1.322667 36.266667-4.138667 54.186667a41.344 41.344 0 0 1-38.528 34.773333c-7.978667 0.810667-16 0.810667-23.978666 0.810667h-21.888a41.6 41.6 0 0 1-38.528-34.133334A358.528 358.528 0 0 1 554.666667 517.845333 111.744 111.744 0 0 1 661.333333 405.333333z" fill="#409ff9" p-id="1116"></path></svg>