<?xml version="1.0" standalone="no"?><!DOCTYPE svg PUBLIC "-//W3C//DTD SVG 1.1//EN" "http://www.w3.org/Graphics/SVG/1.1/DTD/svg11.dtd"><svg t="1663143036048" class="icon" viewBox="0 0 1024 1024" version="1.1" xmlns="http://www.w3.org/2000/svg" p-id="1413" xmlns:xlink="http://www.w3.org/1999/xlink" width="200" height="200"><path d="M577.066667 618.666667a7.210667 7.210667 0 0 1-6.656-5.077334l-6.656-20.010666a6.826667 6.826667 0 0 1 5.717333-8.917334 78.122667 78.122667 0 0 0 62.293333-44.672h-3.626666c-15.36 0-30.72-1.664-45.738667-4.906666a40.789333 40.789333 0 0 1-31.744-35.285334l-0.256-4.693333c0-18.176 1.365333-36.266667 4.138667-54.186667a41.344 41.344 0 0 1 38.528-34.773333c8.021333-0.810667 16-0.810667 24.021333-0.810667h21.845333c19.2 1.109333 35.114667 15.232 38.528 34.133334 4.181333 21.973333 6.272 44.288 6.272 66.688a111.744 111.744 0 0 1-106.666666 112.512z m-213.333334 0a7.210667 7.210667 0 0 1-6.656-5.077334l-6.656-20.010666a6.826667 6.826667 0 0 1 5.717334-8.917334 78.122667 78.122667 0 0 0 62.293333-44.672h-3.626667c-15.36 0-30.72-1.664-45.738666-4.906666a40.789333 40.789333 0 0 1-31.744-35.285334l-0.256-4.693333c0-18.176 1.365333-36.266667 4.138666-54.186667A41.344 41.344 0 0 1 379.733333 406.186667c8.021333-0.810667 16-0.810667 24.021334-0.810667h21.845333c19.2 1.109333 35.114667 15.232 38.528 34.133333 4.181333 21.973333 6.272 44.288 6.272 66.688a111.744 111.744 0 0 1-106.666667 112.512z" fill="#409ff9" p-id="1414"></path></svg>