<?xml version="1.0" standalone="no"?><!DOCTYPE svg PUBLIC "-//W3C//DTD SVG 1.1//EN" "http://www.w3.org/Graphics/SVG/1.1/DTD/svg11.dtd"><svg t="1661842360671" class="icon" viewBox="0 0 1024 1024" version="1.1" xmlns="http://www.w3.org/2000/svg" p-id="63469" data-spm-anchor-id="a313x.7781069.0.i15" xmlns:xlink="http://www.w3.org/1999/xlink" width="150" height="150"><path d="M514 912c-219.9 0-398.8-178.9-398.8-398.9 0-219.9 178.9-398.8 398.8-398.8s398.8 178.9 398.8 398.8c0 220-178.9 398.9-398.8 398.9z m0-701.5c-166.9 0-302.7 135.8-302.7 302.7S347.1 815.9 514 815.9s302.7-135.8 302.7-302.7S680.9 210.5 514 210.5z" fill="#00c8c2" p-id="63470" data-spm-anchor-id="a313x.7781069.0.i16" class=""></path><path d="M681.2 626c-15 0-30.1-5.7-41.5-17.2L517.1 486.3 394.6 608.8c-22.9 22.9-60.2 22.9-83.1 0-22.9-22.9-22.9-60.2 0-83.1l164.1-164.1c22.9-22.9 60.2-22.9 83.1 0l164.1 164.1c22.9 22.9 22.9 60.2 0 83.1-11.5 11.5-26.5 17.2-41.6 17.2z" fill="#11ece5" p-id="63471" data-spm-anchor-id="a313x.7781069.0.i12" class=""></path></svg>